<svg xmlns="http://www.w3.org/2000/svg" width="8.151" height="14.311" viewBox="0 0 8.151 14.311">
  <g id="svgexport-18_38_" data-name="svgexport-18 (38)" transform="translate(8.151 14.311) rotate(180)">
    <path id="Path_2738" data-name="Path 2738" d="M8.121,8.871a.28.28,0,0,0-.25-.155h-2.2L4.352.236A.28.28,0,0,0,4.075,0h0A.28.28,0,0,0,3.8.241L2.607,8.716H.28a.28.28,0,0,0-.224.447l3.8,5.036a.279.279,0,0,0,.447,0L8.1,9.164A.28.28,0,0,0,8.121,8.871Z" transform="translate(0 0)" fill="#36b3a1"/>
  </g>
</svg>
