<svg xmlns="http://www.w3.org/2000/svg" width="8.151" height="14.311" viewBox="0 0 8.151 14.311">
  <g id="svgexport-18_38_" data-name="svgexport-18 (38)" transform="translate(8.151 14.311) rotate(180)" opacity="0.7">
    <path id="Path_2738" data-name="Path 2738" d="M8.121,5.44a.28.28,0,0,1-.25.155h-2.2l-1.325,8.48a.28.28,0,0,1-.276.236h0a.28.28,0,0,1-.274-.241L2.607,5.595H.28a.28.28,0,0,1-.224-.447L3.852.112a.279.279,0,0,1,.447,0L8.1,5.148A.28.28,0,0,1,8.121,5.44Z" transform="translate(0)" fill="#ff5865"/>
  </g>
</svg>
