<svg id="calendar_1_" data-name="calendar (1)" xmlns="http://www.w3.org/2000/svg" width="22.758" height="22.758" viewBox="0 0 22.758 22.758">
  <path id="Path_186" data-name="Path 186" d="M2.934,1.778H4.978V.711A.711.711,0,1,1,6.4.711V1.778h9.957V.711a.711.711,0,1,1,1.422,0V1.778h2.045a2.937,2.937,0,0,1,2.934,2.934V19.824a2.937,2.937,0,0,1-2.934,2.934H2.934A2.937,2.937,0,0,1,0,19.824V4.712A2.937,2.937,0,0,1,2.934,1.778ZM19.824,3.2H17.78v.711a.711.711,0,1,1-1.422,0V3.2H6.4v.711a.711.711,0,1,1-1.422,0V3.2H2.934A1.513,1.513,0,0,0,1.422,4.712V6.4H21.335V4.712A1.513,1.513,0,0,0,19.824,3.2ZM2.934,21.336H19.824a1.513,1.513,0,0,0,1.511-1.511v-12H1.422v12A1.513,1.513,0,0,0,2.934,21.336Z" fill="#75747a"/>
</svg>
