<svg xmlns="http://www.w3.org/2000/svg" width="29.937" height="29.937"><g data-name="svgexport-8 (21)"><g data-name="Path 253"><path d="M24.241 29.937a5.695 5.695 0 0 0 5.479-7.245.748.748 0 0 0-.39-.456l-6.398-3.196a.748.748 0 0 0-.868.135l-2.425 2.424A16.578 16.578 0 0 1 8.338 10.3l2.424-2.426a.748.748 0 0 0 .135-.868L7.701.606a.748.748 0 0 0-.456-.389A5.695 5.695 0 0 0 0 5.695a24.092 24.092 0 0 0 7.103 17.14 24.092 24.092 0 0 0 17.138 7.102ZM5.696 1.497c.274 0 .547.027.815.082l2.807 5.613-2.35 2.35a.846.846 0 0 0-.195.711c.013.09.036.178.068.262a18.052 18.052 0 0 0 12.618 12.581c.095.034.193.059.292.075a.748.748 0 0 0 .681-.202l2.35-2.35 5.613 2.807c.042.27.058.543.045.815a4.206 4.206 0 0 1-4.199 4.199 22.565 22.565 0 0 1-16.076-6.668A22.565 22.565 0 0 1 1.497 5.696a4.206 4.206 0 0 1 4.199-4.2Z" fill-rule="evenodd"/><path d="M24.241 29.937a5.695 5.695 0 0 0 5.479-7.245.748.748 0 0 0-.39-.456l-6.398-3.196a.748.748 0 0 0-.868.135l-2.425 2.424A16.578 16.578 0 0 1 8.338 10.3l2.424-2.426a.748.748 0 0 0 .135-.868L7.701.606a.748.748 0 0 0-.456-.389A5.695 5.695 0 0 0 0 5.695a24.092 24.092 0 0 0 7.103 17.14 24.092 24.092 0 0 0 17.138 7.102ZM5.696 1.497c.274 0 .547.027.815.082l2.807 5.613-2.35 2.35a.846.846 0 0 0-.195.711c.013.09.036.178.068.262a18.052 18.052 0 0 0 12.618 12.581c.095.034.193.059.292.075a.748.748 0 0 0 .681-.202l2.35-2.35 5.613 2.807c.042.27.058.543.045.815a4.206 4.206 0 0 1-4.199 4.199 22.565 22.565 0 0 1-16.076-6.668A22.565 22.565 0 0 1 1.497 5.696a4.206 4.206 0 0 1 4.199-4.2Z" stroke-linejoin="round" stroke-linecap="round" stroke-width=".2" stroke="#000" fill="transparent"/></g><g data-name="Path 254"><path d="M14.969 9.73a5.239 5.239 0 0 1 5.238 5.238.748.748 0 1 0 1.497 0 6.736 6.736 0 0 0-6.735-6.735.748.748 0 0 0 0 1.497Z" fill-rule="evenodd"/><path d="M14.969 9.73a5.239 5.239 0 0 1 5.238 5.238.748.748 0 1 0 1.497 0 6.736 6.736 0 0 0-6.735-6.735.748.748 0 0 0 0 1.497Z" stroke-linejoin="round" stroke-linecap="round" stroke-width=".2" stroke="#000" fill="transparent"/></g><g data-name="Path 255"><path d="M14.969 2.994c6.613 0 11.974 5.361 11.974 11.974a.748.748 0 0 0 1.497 0c0-7.44-6.031-13.471-13.471-13.471a.748.748 0 0 0 0 1.497Z" fill-rule="evenodd"/><path d="M14.969 2.994c6.613 0 11.974 5.361 11.974 11.974a.748.748 0 0 0 1.497 0c0-7.44-6.031-13.471-13.471-13.471a.748.748 0 0 0 0 1.497Z" stroke-linejoin="round" stroke-linecap="round" stroke-width=".2" stroke="#000" fill="transparent"/></g></g></svg>