<svg xmlns="http://www.w3.org/2000/svg" width="140.024" height="140.024" viewBox="88 81.59 140.024 140.024"><g data-name="svgexport-18 (49)"><path d="M88 151.552a70.012 70.012 0 1 1 0 .1z" fill="#348074" fill-rule="evenodd" data-name="Ellipse 195"/><g data-name="Group 111"><g data-name="Path 2772"><path d="M123.415 141.379h-7.403c-.556 0-1.007-.451-1.007-1.007v-23.82c0-.557.451-1.008 1.007-1.008h23.871c.556 0 1.007.451 1.007 1.007v7.403c0 .557-.45 1.007-1.007 1.007h-15.46v15.41c0 .557-.451 1.008-1.008 1.008Zm76.547 0h-7.403c-.556 0-1.007-.451-1.007-1.007v-15.41h-15.41c-.556 0-1.007-.451-1.007-1.008v-7.403c0-.556.45-1.007 1.007-1.007h23.82c.557 0 1.008.451 1.008 1.007v23.82c0 .557-.451 1.008-1.008 1.008Zm-60.079 46.33h-23.87c-.557 0-1.008-.45-1.008-1.006v-23.82c0-.557.451-1.008 1.007-1.008h7.403c.557 0 1.008.451 1.008 1.007v15.46h15.46c.556 0 1.007.452 1.007 1.008v7.353c0 .556-.45 1.007-1.007 1.007Zm60.08 0h-23.82c-.557 0-1.008-.45-1.008-1.006v-7.353c0-.556.45-1.007 1.007-1.007h15.41v-15.46c0-.557.451-1.008 1.007-1.008h7.403c.557 0 1.008.451 1.008 1.007v23.82c0 .557-.451 1.008-1.008 1.008Zm-41.95-28.352a7.755 7.755 0 0 1-1.964-.252 9.72 9.72 0 0 0 0-14.956 7.755 7.755 0 0 1 9.669 7.503 7.705 7.705 0 0 1-7.705 7.705Z" fill="#fff" fill-rule="evenodd"/><path d="M123.415 141.379h-7.403c-.556 0-1.007-.451-1.007-1.007v-23.82c0-.557.451-1.008 1.007-1.008h23.871c.556 0 1.007.451 1.007 1.007v7.403c0 .557-.45 1.007-1.007 1.007h-15.46v15.41c0 .557-.451 1.008-1.008 1.008Zm76.547 0h-7.403c-.556 0-1.007-.451-1.007-1.007v-15.41h-15.41c-.556 0-1.007-.451-1.007-1.008v-7.403c0-.556.45-1.007 1.007-1.007h23.82c.557 0 1.008.451 1.008 1.007v23.82c0 .557-.451 1.008-1.008 1.008Zm-60.079 46.33h-23.87c-.557 0-1.008-.45-1.008-1.006v-23.82c0-.557.451-1.008 1.007-1.008h7.403c.557 0 1.008.451 1.008 1.007v15.46h15.46c.556 0 1.007.452 1.007 1.008v7.353c0 .556-.45 1.007-1.007 1.007Zm60.08 0h-23.82c-.557 0-1.008-.45-1.008-1.006v-7.353c0-.556.45-1.007 1.007-1.007h15.41v-15.46c0-.557.451-1.008 1.007-1.008h7.403c.557 0 1.008.451 1.008 1.007v23.82c0 .557-.451 1.008-1.008 1.008Zm-41.95-28.352a7.755 7.755 0 0 1-1.964-.252 9.72 9.72 0 0 0 0-14.956 7.755 7.755 0 0 1 9.669 7.503 7.705 7.705 0 0 1-7.705 7.705Z" stroke-linejoin="round" stroke-linecap="round" stroke-width="4" stroke="#348074" fill="transparent"/></g><g data-name="Path 2773"><path d="M149.854 159.357a7.73 7.73 0 1 1 0-15.46 7.73 7.73 0 0 1 0 15.46Zm16.267 0a7.755 7.755 0 0 1-1.914-.252 9.72 9.72 0 0 0 0-14.956 7.755 7.755 0 0 1 9.669 7.503 7.705 7.705 0 0 1-7.755 7.705Z" fill="#fff" fill-rule="evenodd"/><path d="M149.854 159.357a7.73 7.73 0 1 1 0-15.46 7.73 7.73 0 0 1 0 15.46Zm16.267 0a7.755 7.755 0 0 1-1.914-.252 9.72 9.72 0 0 0 0-14.956 7.755 7.755 0 0 1 9.669 7.503 7.705 7.705 0 0 1-7.755 7.705Z" stroke-linejoin="round" stroke-linecap="round" stroke-width="4" stroke="#348074" fill="transparent"/></g><g data-name="Path 2774"><path d="M158.013 177.336c-14.213 0-25.734-11.522-25.734-25.734 0-14.213 11.521-25.734 25.734-25.734 14.212 0 25.733 11.521 25.733 25.734 0 14.212-11.521 25.734-25.733 25.734Zm0-44.015c-10.124 0-18.331 8.207-18.331 18.331 0 10.124 8.207 18.331 18.33 18.331 10.125 0 18.332-8.207 18.332-18.33 0-10.125-8.207-18.332-18.331-18.332Z" fill="#fff" fill-rule="evenodd"/><path d="M158.013 177.336c-14.213 0-25.734-11.522-25.734-25.734 0-14.213 11.521-25.734 25.734-25.734 14.212 0 25.733 11.521 25.733 25.734 0 14.212-11.521 25.734-25.733 25.734Zm0-44.015c-10.124 0-18.331 8.207-18.331 18.331 0 10.124 8.207 18.331 18.33 18.331 10.125 0 18.332-8.207 18.332-18.33 0-10.125-8.207-18.332-18.331-18.332Z" stroke-linejoin="round" stroke-linecap="round" stroke-width="4" stroke="#348074" fill="transparent"/></g></g></g></svg>