<svg xmlns="http://www.w3.org/2000/svg" width="149" height="149" viewBox="84 76.95 149 149"><g data-name="svgexport-18 (49)"><path d="M88.948 151.552a70.012 70.012 0 1 1 0 .1z" fill="#348074" fill-rule="evenodd" data-name="Ellipse 195"/><g data-name="svgexport-17 (9)"><g data-name="Layer 2"><path d="M84 151.4a74.5 74.5 0 1 1 0 .1z" fill="rgba(0,0,0,0 )" fill-rule="evenodd" data-name="Ellipse 196"/><path d="M170.304 191.6a2.79 2.79 0 0 1-.925-.168c-6.853-1.74-12.578-5.24-17.015-10.38-4.501-5.22-6.78-11.6-6.78-19.016a11.551 11.551 0 0 1 3.836-8.787 13.378 13.378 0 0 1 18.07 0 11.551 11.551 0 0 1 3.85 8.787 6.232 6.232 0 0 0 2.27 4.901 7.972 7.972 0 0 0 5.481 2.083 7.517 7.517 0 0 0 5.258-2.071 6.354 6.354 0 0 0 2.195-4.93c0-7.45-2.694-13.515-8.236-18.543-5.542-5.03-12.18-7.54-19.854-7.54-7.674 0-14.341 2.537-19.851 7.54-5.51 5.002-8.236 11.092-8.236 18.543.04 1.93.21 3.855.51 5.762a40.449 40.449 0 0 0 2.163 8.04c.462 1.18.038 1.969-.255 2.337-.242.3-.53.56-.852.771l-.084.058-.093.047c-.395.194-.83.294-1.27.29a2.86 2.86 0 0 1-.641-.073 2.48 2.48 0 0 1-1.796-1.572l-.017-.037v-.041a56.116 56.116 0 0 1-2.03-7.662 42.686 42.686 0 0 1-.748-7.932c0-8.7 3.338-16.211 9.924-22.36 6.586-6.148 14.387-9.222 23.285-9.222 9.086 0 16.997 3.054 23.52 9.072 6.522 6.017 9.883 13.63 9.883 22.51a11.522 11.522 0 0 1-3.77 8.683 12.711 12.711 0 0 1-8.99 3.518 13.166 13.166 0 0 1-9.17-3.503c-2.584-2.361-3.895-5.287-3.895-8.7a6.441 6.441 0 0 0-2.196-5.018 7.627 7.627 0 0 0-5.365-2.065 7.793 7.793 0 0 0-5.42 2.074 6.38 6.38 0 0 0-2.236 5.008c0 6.198 1.89 11.424 5.617 15.536 3.805 4.197 8.62 7.184 14.31 8.88l.052.018a2.72 2.72 0 0 1 1.673 1.305 2.86 2.86 0 0 1-.896 3.45c-.374.263-.82.405-1.276.407Zm-20.823-.783a2.41 2.41 0 0 1-1.85-.917c-3.79-3.93-6.795-8.12-8.93-12.47-2.18-4.431-3.288-9.614-3.288-15.405 0-6.143 2.29-11.39 6.81-15.597 4.518-4.208 9.947-6.296 16.24-6.296 6.293 0 11.774 2.117 16.321 6.287 4.548 4.17 6.914 9.457 6.914 15.606a2.477 2.477 0 0 1-2.61 2.61 2.796 2.796 0 0 1-1.821-.621 2.529 2.529 0 0 1-.87-1.987c0-4.738-1.723-8.607-5.264-11.826-3.587-3.263-7.728-4.85-12.659-4.85-4.93 0-9.048 1.587-12.569 4.847-3.52 3.26-5.18 7.094-5.18 11.838 0 5.157.897 9.59 2.66 13.181 1.801 3.663 4.524 7.392 8.094 11.084.591.532.886 1.32.79 2.109a2.746 2.746 0 0 1-.801 1.554c-.36.342-.795.595-1.27.737-.231.077-.473.116-.717.116Zm28.737-7.372c-6.026 0-11.31-2.03-15.739-6.038-4.463-4.06-6.728-9.223-6.728-15.37a2.798 2.798 0 0 1 .62-1.825 2.68 2.68 0 0 1 3.974 0c.419.514.64 1.161.623 1.824 0 4.727 1.682 8.512 5.148 11.569 3.527 3.111 7.485 4.625 12.102 4.625.458 0 1.021-.032 1.674-.09.652-.058 1.389-.15 2.169-.27a2.9 2.9 0 0 1 .54-.051c.57-.007 1.124.189 1.562.553.413.331.723.773.894 1.274l.02.058.014.063a2.58 2.58 0 0 1-.17 1.807 2.398 2.398 0 0 1-1.709 1.25c-1.092.32-2.216.515-3.352.58-1.186.038-1.505.04-1.642.04Zm-53.617-40.068c-.426 0-.846-.1-1.227-.29a2.3 2.3 0 0 1-1.296-2.097c0-.54.126-1.072.368-1.554l.058-.12.079-.106a42.173 42.173 0 0 1 15.66-13.271 45.163 45.163 0 0 1 20.205-4.681 46.26 46.26 0 0 1 20.24 4.576 42.025 42.025 0 0 1 15.82 13.175l.044.061.037.064a2.529 2.529 0 0 1-.34 3.347 2.61 2.61 0 0 1-3.99-.33l-.026-.033-.023-.034a36.13 36.13 0 0 0-13.813-11.563 41.054 41.054 0 0 0-17.946-4.06 39.757 39.757 0 0 0-17.783 4.098 37.928 37.928 0 0 0-13.796 11.542l-.017.023-.02.026c-.386.532-.93.928-1.555 1.131-.221.062-.45.095-.679.096Zm10.936-20.834a2.137 2.137 0 0 1-1.099-.29 3.028 3.028 0 0 1-.87-.824 2.413 2.413 0 0 1-.545-1.598 2.303 2.303 0 0 1 1.024-1.949l.06-.04.065-.035c3.74-2.035 7.719-3.6 11.844-4.658a50.241 50.241 0 0 1 12.438-1.592c4.264-.002 8.51.531 12.642 1.586a57.592 57.592 0 0 1 11.748 4.417 2.35 2.35 0 0 1 1.47 1.868 2.61 2.61 0 0 1-.409 1.792 3.161 3.161 0 0 1-1.081.995 2.352 2.352 0 0 1-1.19.313 2.83 2.83 0 0 1-1.055-.212l-.058-.023-.058-.029a56.356 56.356 0 0 0-10.716-3.961 45.221 45.221 0 0 0-11.293-1.433c-3.77 0-7.534.455-11.203 1.355a44.62 44.62 0 0 0-10.45 4.028l-.08.043-.087.035c-.349.14-.721.212-1.097.212Z" fill="#fff" fill-rule="evenodd" data-name="Path 2775"/></g></g></g></svg>