<svg xmlns="http://www.w3.org/2000/svg" xmlns:xlink="http://www.w3.org/1999/xlink" width="252" height="252" viewBox="0 0 252 252">
  <defs>
    <linearGradient id="linear-gradient" x1="0.853" y1="0.149" x2="0.143" y2="0.831" gradientUnits="objectBoundingBox">
      <stop offset="0" stop-color="#348074"/>
      <stop offset="1" stop-color="#36b3a1"/>
    </linearGradient>
  </defs>
  <g id="Group_56" data-name="Group 56" transform="translate(-89 -350)">
    <g id="Group_55" data-name="Group 55">
      <circle id="Ellipse_1" data-name="Ellipse 1" cx="114" cy="114" r="114" transform="translate(101 362)" fill="url(#linear-gradient)"/>
      <g id="Ellipse_2" data-name="Ellipse 2" transform="translate(89 350)" fill="none" stroke="#36b3a1" stroke-width="5" opacity="0.05">
        <circle cx="126" cy="126" r="126" stroke="none"/>
        <circle cx="126" cy="126" r="123.5" fill="none"/>
      </g>
      <g id="Ellipse_3" data-name="Ellipse 3" transform="translate(94 355)" fill="none" stroke="#36b3a1" stroke-width="5" opacity="0.05">
        <circle cx="121" cy="121" r="121" stroke="none"/>
        <circle cx="121" cy="121" r="118.5" fill="none"/>
      </g>
      <g id="svgexport-18_34_" data-name="svgexport-18 (34)" transform="translate(69.339 378.984)" opacity="0.19">
        <path id="Path_15" data-name="Path 15" d="M112.4,173.557a197.179,197.179,0,0,1-31.729-47.289,3.045,3.045,0,1,0-5.5,2.623,203.251,203.251,0,0,0,32.708,48.75q5.7,6.309,11.751,12.3a3.045,3.045,0,1,0,4.287-4.327Q118,179.743,112.4,173.557ZM85.469,158.483a3.045,3.045,0,1,0-5.042,3.417,205.875,205.875,0,0,0,14.729,19.2,3.046,3.046,0,0,0,4.606-3.986,199.8,199.8,0,0,1-14.293-18.635ZM113.713,12.749a76.393,76.393,0,0,1,31.157-6.66,75.551,75.551,0,0,1,45.136,14.963,76.812,76.812,0,0,1,13.1,12.294,3.045,3.045,0,0,0,4.658-3.925,82.888,82.888,0,0,0-14.141-13.27A81.807,81.807,0,0,0,123.308,2.876a82.787,82.787,0,0,0-12.084,4.314,3.045,3.045,0,1,0,2.489,5.558Zm-33.2,23.309a3.045,3.045,0,0,0,4.273-.541,75.777,75.777,0,0,1,19.086-17.453,3.046,3.046,0,1,0-3.284-5.13A81.856,81.856,0,0,0,79.968,31.785,3.045,3.045,0,0,0,80.508,36.058Z" transform="translate(-0.111)" fill="#fff"/>
        <path id="Path_16" data-name="Path 16" d="M80.36,83.363a3.045,3.045,0,0,0,3.867-1.9,63.937,63.937,0,0,1,121.633,1.7c.022.072.047.144.076.214a46.239,46.239,0,0,0,2.885,5.868,3.045,3.045,0,1,0,5.283-3.032,41.016,41.016,0,0,1-2.459-4.964A70.028,70.028,0,0,0,78.463,79.5,3.045,3.045,0,0,0,80.36,83.363Zm40.969,101.846c-27.561-30.5-36.731-60.66-38.29-66.4a63.358,63.358,0,0,1-1.546-26.131,3.045,3.045,0,0,0-6.024-.9,69.415,69.415,0,0,0,1.692,28.627c1.622,5.973,11.159,37.359,39.649,68.887q2.171,2.4,4.395,4.756a3.047,3.047,0,0,0,4.429-4.185Q123.455,187.562,121.329,185.209Zm24.571,24.18q-5.831-5.117-11.4-10.526a3.045,3.045,0,1,0-4.246,4.367q5.674,5.515,11.624,10.735a3.045,3.045,0,0,0,4.018-4.578Z" transform="translate(0 -19.82)" fill="#fff"/>
        <path id="Path_17" data-name="Path 17" d="M233.8,125.807q-1.144-1.217-2.265-2.456a61.439,61.439,0,0,1-11.583-18.29,57.2,57.2,0,0,0-7.914-16.239,3.045,3.045,0,1,0-4.987,3.5,51.115,51.115,0,0,1,7.1,14.592c.017.056.036.112.056.168a66.705,66.705,0,0,0,12.811,20.355c.761.844,1.552,1.7,2.346,2.545a3.045,3.045,0,0,0,4.437-4.172ZM151.011,71.9a51.554,51.554,0,0,1,48.415,11.767,3.046,3.046,0,1,0,4.1-4.506,57.808,57.808,0,0,0-94.781,57.871,120.733,120.733,0,0,0,5.634,15.618,3.045,3.045,0,0,0,5.592-2.415,114.468,114.468,0,0,1-5.35-14.8A51.835,51.835,0,0,1,151.011,71.9Zm31.267,155.36a288.247,288.247,0,0,1-32.085-30.4,174.165,174.165,0,0,1-25.4-36.469,3.045,3.045,0,1,0-5.406,2.806,180.249,180.249,0,0,0,26.282,37.745,294.327,294.327,0,0,0,32.765,31.047,3.045,3.045,0,0,0,3.839-4.729Z" transform="translate(-19.827 -39.637)" fill="#fff"/>
        <path id="Path_18" data-name="Path 18" d="M222.433,130.632a78.373,78.373,0,0,0,15.375,24.791c3.363,3.722,6.984,7.42,10.764,10.993a3.045,3.045,0,0,0,4.184-4.426c-3.664-3.464-7.173-7.047-10.431-10.65A71.963,71.963,0,0,1,228.209,128.7,45.936,45.936,0,0,0,184.417,96a3.045,3.045,0,1,0,0,6.091A39.813,39.813,0,0,1,222.39,130.5C222.4,130.542,222.418,130.587,222.433,130.632ZM161.761,196.65a3.045,3.045,0,1,0,4.971-3.519c-14.466-20.435-19.635-37.795-20.524-41.068a39.644,39.644,0,0,1,26.248-48.121,3.045,3.045,0,1,0-1.836-5.808A45.734,45.734,0,0,0,140.33,153.66C141.645,158.5,147.078,175.911,161.761,196.65Zm53.776,45.529a277.116,277.116,0,0,1-36.474-33.668q-2.658-2.942-5.177-6.006a3.045,3.045,0,1,0-4.707,3.866q2.608,3.175,5.363,6.224a283.255,283.255,0,0,0,37.291,34.419,3.045,3.045,0,1,0,3.7-4.835Zm37.549-63.554a206.858,206.858,0,0,1-19.8-19.119,90.338,90.338,0,0,1-6.163-7.616,3.045,3.045,0,1,0-4.936,3.568,96.522,96.522,0,0,0,6.58,8.132,212.946,212.946,0,0,0,20.381,19.685,3.045,3.045,0,1,0,3.934-4.65Z" transform="translate(-39.658 -59.457)" fill="#fff"/>
        <path id="Path_19" data-name="Path 19" d="M196.912,134.614a27.4,27.4,0,0,1,33.526,18.879c.009.032.019.063.029.094a68.305,68.305,0,0,0,4.717,10.58,3.046,3.046,0,0,0,5.368-2.881,63.323,63.323,0,0,1-4.273-9.528,33.5,33.5,0,1,0-64.51,18.089c1.241,4.563,8.586,28.609,31.5,53.962q7.426,8.21,15.5,15.8a3.045,3.045,0,1,0,4.169-4.44q-7.889-7.407-15.154-15.439C185.8,195.4,178.822,172.577,177.647,168.25A27.441,27.441,0,0,1,196.912,134.614Zm49.407,120.059c-4.715-3.455-9.517-7.271-14.273-11.342a3.045,3.045,0,1,0-3.959,4.628c4.873,4.169,9.795,8.081,14.633,11.626a3.045,3.045,0,0,0,3.6-4.913Z" transform="translate(-59.341 -78.839)" fill="#fff"/>
        <path id="Path_20" data-name="Path 20" d="M291.475,232.811a218.039,218.039,0,0,1-27.643-25.674c-14.292-15.816-19.04-30.857-19.324-31.786a21.318,21.318,0,1,0-41.087,11.385c.109.4.352,1.256.757,2.5a3.045,3.045,0,1,0,5.789-1.894q-.361-1.092-.668-2.2a15.227,15.227,0,1,1,29.355-8.108l.016.057c.209.693,5.295,17.151,20.643,34.134a224.256,224.256,0,0,0,28.429,26.4,3.046,3.046,0,1,0,3.734-4.813Zm-16.12,33.534a245.82,245.82,0,0,1-38.639-34.706,136.984,136.984,0,0,1-22.341-33.331,3.045,3.045,0,1,0-5.516,2.582A143.162,143.162,0,0,0,232.2,235.722a252.075,252.075,0,0,0,39.623,35.584,3.045,3.045,0,1,0,3.533-4.962Z" transform="translate(-79.237 -98.92)" fill="#fff"/>
        <path id="Path_21" data-name="Path 21" d="M302.553,276.6a231.155,231.155,0,0,1-36.933-33.153c-18.97-20.992-24.477-40.7-24.7-41.527a3.046,3.046,0,1,1,5.878-1.6c.053.19,5.473,19.266,23.343,39.041q2.305,2.55,4.686,5.03a3.045,3.045,0,1,0,4.394-4.218q-2.317-2.414-4.561-4.9c-16.75-18.536-21.944-36.412-21.99-36.574a9.136,9.136,0,0,0-17.628,4.814c.241.886,6.125,21.954,26.061,44.014a237.438,237.438,0,0,0,37.935,34.041,3.045,3.045,0,1,0,3.517-4.973Z" transform="translate(-99.102 -118.894)" fill="#fff"/>
        <path id="Path_22" data-name="Path 22" d="M386.289,356.653q-2.754-2.008-5.43-4.121c-4.953-3.9-9.919-8.184-14.76-12.725a3.045,3.045,0,1,0-4.166,4.443c4.967,4.659,10.067,9.055,15.156,13.066q2.768,2.185,5.618,4.264a3.045,3.045,0,1,0,3.583-4.925Z" transform="translate(-177.295 -209.942)" fill="#fff"/>
      </g>
    </g>
    <text id="check_IN" data-name="check IN" transform="translate(160 485)" fill="#fff" font-size="24" font-family="SegoeUI-Bold, Segoe UI" font-weight="700"><tspan x="0" y="0">CHECK IN</tspan></text>
  </g>
</svg>
