<svg xmlns="http://www.w3.org/2000/svg" width="30.102" height="30.102"><g data-name="Group 138"><g data-name="Ellipse 51"><path d="M14.164 7.666a1.47 1.47 0 1 1 0 .1z" fill-rule="evenodd"/><path d="M14.164 7.666a1.47 1.47 0 1 1 0 .1z" stroke-linejoin="round" stroke-linecap="round" stroke-width=".5" stroke="#fff" fill="transparent"/></g><g data-name="Path 251"><path d="M25.694 4.408A14.953 14.953 0 0 0 15.05 0c-4.02 0-7.8 1.566-10.643 4.408A14.953 14.953 0 0 0 0 15.051c0 4.02 1.566 7.8 4.408 10.643a14.953 14.953 0 0 0 10.643 4.408c4.02 0 7.8-1.566 10.643-4.408a14.953 14.953 0 0 0 4.408-10.643c0-4.02-1.566-7.8-4.408-10.643ZM15.05 27.75c-7.002 0-12.7-5.697-12.7-12.699s5.698-12.7 12.7-12.7c7.002 0 12.7 5.698 12.7 12.7 0 7.002-5.698 12.7-12.7 12.7Z" fill-rule="evenodd"/><path d="M25.694 4.408A14.953 14.953 0 0 0 15.05 0c-4.02 0-7.8 1.566-10.643 4.408A14.953 14.953 0 0 0 0 15.051c0 4.02 1.566 7.8 4.408 10.643a14.953 14.953 0 0 0 10.643 4.408c4.02 0 7.8-1.566 10.643-4.408a14.953 14.953 0 0 0 4.408-10.643c0-4.02-1.566-7.8-4.408-10.643ZM15.05 27.75c-7.002 0-12.7-5.697-12.7-12.699s5.698-12.7 12.7-12.7c7.002 0 12.7 5.698 12.7 12.7 0 7.002-5.698 12.7-12.7 12.7Z" stroke-linejoin="round" stroke-linecap="round" stroke-width=".5" stroke="#fff" fill="transparent"/></g><g data-name="Path 252"><path d="M16.375 21.523a.482.482 0 0 1-.515-.046.483.483 0 0 1-.198-.48l1.01-6.719a2.843 2.843 0 0 0-1.13-2.727 2.844 2.844 0 0 0-2.94-.265l-1.452.708 1.03 2.114 1.453-.709a.482.482 0 0 1 .515.047.482.482 0 0 1 .198.48l-1.009 6.718a2.843 2.843 0 0 0 1.13 2.727 2.846 2.846 0 0 0 2.94.266l1.452-.709-1.031-2.113-1.453.708Z" fill-rule="evenodd"/><path d="M16.375 21.523a.482.482 0 0 1-.515-.046.483.483 0 0 1-.198-.48l1.01-6.719a2.843 2.843 0 0 0-1.13-2.727 2.844 2.844 0 0 0-2.94-.265l-1.452.708 1.03 2.114 1.453-.709a.482.482 0 0 1 .515.047.482.482 0 0 1 .198.48l-1.009 6.718a2.843 2.843 0 0 0 1.13 2.727 2.846 2.846 0 0 0 2.94.266l1.452-.709-1.031-2.113-1.453.708Z" stroke-linejoin="round" stroke-linecap="round" stroke-width=".5" stroke="#fff" fill="transparent"/></g></g></svg>