<svg xmlns="http://www.w3.org/2000/svg" width="140.024" height="140.024" viewBox="-3162 4989.95 140.024 140.024"><g data-name="CompositeLayer"><path d="M-3162 5059.912a70.012 70.012 0 1 1 0 .1z" fill="#348074" fill-rule="evenodd" data-name="Ellipse 195"/><g data-name="svgexport-17 (10)"><path d="M-3061.056 5075.079a2.176 2.176 0 1 0-2.096 3.814c2.593 1.424 4.08 3.003 4.08 4.332 0 1.625-2.303 4.143-8.765 6.339-6.384 2.169-14.916 3.363-24.023 3.363s-17.639-1.194-24.023-3.363c-6.462-2.196-8.765-4.714-8.765-6.34 0-1.328 1.487-2.907 4.08-4.33a2.176 2.176 0 1 0-2.096-3.815c-2.89 1.588-6.336 4.29-6.336 8.146 0 2.956 2.033 7.17 11.717 10.46 6.823 2.318 15.852 3.595 25.423 3.595 9.571 0 18.6-1.277 25.423-3.595 9.684-3.29 11.717-7.504 11.717-10.46 0-3.856-3.446-6.558-6.336-8.146Z" fill="#fff" fill-rule="evenodd" data-name="Path 2776"/><path d="M-3108.29 5086.418c4.418 1.248 10.253 1.935 16.43 1.935s12.012-.687 16.43-1.935c5.404-1.527 8.145-3.737 8.145-6.569 0-2.831-2.74-5.041-8.145-6.568a42.51 42.51 0 0 0-3.892-.89 313.638 313.638 0 0 1-2.368 4.02c1.535.23 2.977.513 4.286.847 3.977 1.013 5.43 2.153 5.73 2.592-.3.438-1.752 1.579-5.73 2.592-3.764.958-8.608 1.505-13.71 1.554a10.11 10.11 0 0 1-1.493 0c-5.101-.049-9.945-.595-13.71-1.554-3.977-1.013-5.43-2.154-5.729-2.592.3-.439 1.752-1.58 5.73-2.592 1.309-.334 2.75-.616 4.286-.847a314.566 314.566 0 0 1-2.368-4.02 42.55 42.55 0 0 0-3.892.89c-5.404 1.527-8.145 3.737-8.145 6.568 0 2.832 2.74 5.042 8.145 6.569Z" fill="#fff" fill-rule="evenodd" data-name="Path 2777"/><path d="M-3091.86 5079.672a5.479 5.479 0 0 0 4.707-2.64c7.082-11.586 15.523-26.855 15.523-33.803 0-11.154-9.075-20.229-20.23-20.229-11.155 0-20.23 9.075-20.23 20.23 0 6.947 8.441 22.216 15.522 33.802a5.479 5.479 0 0 0 4.708 2.64Zm-8.131-37.831c0-4.484 3.647-8.131 8.13-8.131 4.484 0 8.132 3.647 8.132 8.13 0 4.484-3.648 8.132-8.131 8.132-4.484 0-8.131-3.648-8.131-8.131Z" fill="#fff" fill-rule="evenodd" data-name="Path 2778"/></g></g></svg>