<svg xmlns="http://www.w3.org/2000/svg" width="27.32" height="29.474"><g data-name="svgexport-8 (14)"><g data-name="Group 116"><g data-name="Group 115"><path d="M13.161 27.785H5.473a3.79 3.79 0 0 1-3.784-3.784V5.473A3.79 3.79 0 0 1 5.473 1.69h7.813a.84.84 0 0 0 .845-.845.84.84 0 0 0-.845-.844H5.473A5.48 5.48 0 0 0 0 5.473v18.528a5.48 5.48 0 0 0 5.473 5.473h7.688a.845.845 0 0 0 0-1.689Z" fill-rule="evenodd" data-name="Path 237"/><path d="m27.073 14.143-5.367-5.367a.842.842 0 0 0-1.195 0 .842.842 0 0 0 0 1.195l3.928 3.928H7.306a.84.84 0 0 0-.844.844c0 .47.375.845.844.845H24.44l-3.928 3.928a.842.842 0 0 0 0 1.195.85.85 0 0 0 .594.25.824.824 0 0 0 .594-.25l5.367-5.367a.844.844 0 0 0 .007-1.201Z" fill-rule="evenodd" data-name="Path 238"/></g></g></g></svg>