<svg xmlns="http://www.w3.org/2000/svg" width="66.136" height="72.068" viewBox="0 0 66.136 72.068">
  <g id="Group_42442" data-name="Group 42442" transform="translate(-329.932 -519)">
    <g id="Group_95" data-name="Group 95" transform="translate(82.861 -56.973) rotate(8)">
      <g id="Path_2779" data-name="Path 2779" transform="matrix(0.921, -0.391, 0.391, 0.921, 327.597, 555.696)" fill="#348074" stroke-dasharray="76">
        <path d="M27,54A27,27,0,1,0,0,27,27,27,0,0,0,27,54Z" stroke="none"/>
        <path d="M 27 54 C 26.98907852172852 54 26.97815895080566 53.99999237060547 26.96723937988281 53.99998092651367 C 24.73779678344727 53.99733352661133 22.57135009765625 53.72439956665039 20.49949264526367 53.21232223510742 C 18.46672248840332 52.70995712280273 16.52580451965332 51.97762298583984 14.70382118225098 51.04396820068359 C 12.1830587387085 49.75222778320313 9.891880989074707 48.07564163208008 7.908120155334473 46.09188079833984 C 5.924359321594238 44.10811996459961 4.24777364730835 41.81694030761719 2.956031799316406 39.29618072509766 C 2.02237606048584 37.47419357299805 1.290044784545898 35.53327941894531 0.7876788973808289 33.50050735473633 C 0.2756001055240631 31.42864990234375 0.002666969317942858 29.26220321655273 1.953124956344254e-05 27.03276062011719 C 6.56554038869217e-06 27.02184104919434 -3.552713678800501e-15 27.01092147827148 -3.552713678800501e-15 27 C -3.552713678800501e-15 27 -3.552713678800501e-15 27 -3.552713678800501e-15 27 C -3.552713678800501e-15 26.99635887145996 5.49337528354954e-07 26.99370384216309 1.990241571547813e-06 26.99006462097168 C 2.375819804001367e-06 26.98897743225098 2.971507228721748e-06 26.98797988891602 3.485597062535817e-06 26.98689270019531 C 4.386140972201247e-06 26.98507308959961 6.31765806247131e-06 26.98182106018066 7.578360964544117e-06 26.97999954223633 C 8.606482879258692e-06 26.97854995727539 9.262554158340208e-06 26.97775077819824 1.051910112437326e-05 26.9763011932373 C 1.213992800330743e-05 26.9744815826416 1.539823097118642e-05 26.97122383117676 1.737915044941474e-05 26.96940422058105 C 1.857851384556852e-05 26.96831703186035 1.933287603606004e-05 26.96750831604004 2.066070737782866e-05 26.96642112731934 C 2.498260982974898e-05 26.96278190612793 2.859373853425495e-05 26.96014404296875 3.435573671595193e-05 26.95650482177734 C 3.492680116323754e-05 26.95614242553711 3.628044214565307e-05 26.95541954040527 3.686577474582009e-05 26.95505714416504 C 4.262777292751707e-05 26.95141792297363 4.510176222538576e-05 26.95005035400391 5.230358874541707e-05 26.9464111328125 C 5.440206223283894e-05 26.9453239440918 5.642139876727015e-05 26.94440078735352 5.864829290658236e-05 26.94331550598145 C 6.242916424525902e-05 26.94149589538574 6.992278940742835e-05 26.93804931640625 7.406355143757537e-05 26.93622970581055 C 7.659004768356681e-05 26.93514251708984 7.903144432930276e-05 26.93408393859863 8.168633212335408e-05 26.93299865722656 C 8.618694846518338e-05 26.93117904663086 9.580723417457193e-05 26.92744064331055 0.0001006676684482954 26.92562103271484 C 0.0001035793247865513 26.92453384399414 0.0001054034510161728 26.92381477355957 0.0001084434770746157 26.92272758483887 C 0.0001185241417260841 26.91909027099609 0.0001257416297448799 26.91664123535156 0.0001372613187413663 26.91300392150879 C 0.000139544703415595 26.91227912902832 0.0001431679120287299 26.9112377166748 0.0001455083547625691 26.91051292419434 C 0.0001544178958283737 26.90778541564941 0.0001610842446098104 26.90573120117188 0.0001708030613372102 26.90300369262695 C 0.000175883193151094 26.90155601501465 0.0001785692438716069 26.90084266662598 0.0001838775060605258 26.89939498901367 C 0.0001905365352286026 26.89757537841797 0.0002012704062508419 26.89471817016602 0.0002082890714518726 26.89290046691895 C 0.0002125268656527624 26.89181327819824 0.0002189178921980783 26.89018249511719 0.0002232839906355366 26.88909721374512 C 0.0002306622336618602 26.88727760314941 0.0002441886172164232 26.88402938842773 0.000251926394412294 26.88221168518066 C 0.0002565490722190589 26.88112449645996 0.0002601726446300745 26.88024520874023 0.0002649235830176622 26.87915802001953 C 0.0002807586861308664 26.87552070617676 0.0002916161611210555 26.87312507629395 0.0003088891971856356 26.8694896697998 C 0.0003123130300082266 26.86876487731934 0.000318109494401142 26.86760902404785 0.0003215903125237674 26.86688613891602 C 0.0003348146856296808 26.86415863037109 0.0003457671264186502 26.86189651489258 0.0003598001785576344 26.85917091369629 C 0.0003635089669842273 26.85844612121582 0.0003719515516422689 26.85683631896973 0.0003757173253688961 26.85611343383789 C 0.0003852523805107921 26.85429573059082 0.000402850826503709 26.85100173950195 0.0004127452266402543 26.84918212890625 C 0.0004186930600553751 26.84809684753418 0.0004261775175109506 26.84673309326172 0.0004322535532992333 26.84564781188965 C 0.0004425072693265975 26.84383010864258 0.0004633885982912034 26.8401927947998 0.0004740016011055559 26.83837509155273 C 0.0004782516916748136 26.8376522064209 0.0004856253508478403 26.83636856079102 0.0004899324267171323 26.83564376831055 C 0.0005115176318213344 26.83200836181641 0.0005262138438411057 26.8296012878418 0.0005492359632626176 26.82596778869629 C 0.0005560810677707195 26.82488059997559 0.0005643990589305758 26.82362937927246 0.0005713722785003483 26.82254409790039 C 0.0005830629379488528 26.82072639465332 0.0006022074958309531 26.81780242919922 0.0006142572965472937 26.81598472595215 C 0.0006238966016098857 26.81453704833984 0.0006305862334556878 26.81356430053711 0.0006404533633030951 26.8121166229248 C 0.0006528622470796108 26.81030082702637 0.0006712517933920026 26.80764389038086 0.0006840197602286935 26.80582618713379 C 0.0006916763377375901 26.80474090576172 0.0007037905161269009 26.80302619934082 0.000711575208697468 26.80194091796875 C 0.0007247022003866732 26.80012512207031 0.0007516129408031702 26.79645347595215 0.0007650990155525506 26.79463577270508 C 0.0007704880554229021 26.79391288757324 0.0007778618601150811 26.79290008544922 0.000783307827077806 26.79217720031738 C 0.0008106388850137591 26.78854370117188 0.0008306792587973177 26.78594207763672 0.0008594461251050234 26.78230857849121 C 0.0008679992752149701 26.78122329711914 0.0008735556621104479 26.78055763244629 0.0008822368690744042 26.77947235107422 C 0.0008967997273430228 26.77765655517578 0.0009252314339391887 26.77415466308594 0.0009401532006449997 26.77233695983887 C 0.0009491331875324249 26.7712516784668 0.0009626313694752753 26.7696418762207 0.0009717393550090492 26.76855850219727 C 0.0009870199719443917 26.7667407989502 0.001009689760394394 26.76407623291016 0.001025329227559268 26.76225852966309 C 0.00103469321038574 26.76117324829102 0.001048046047799289 26.7596263885498 0.00105753808747977 26.75854110717773 C 0.001073536346666515 26.75672340393066 0.001110259909182787 26.75260353088379 0.00112661684397608 26.75078773498535 C 0.001133144018240273 26.75006484985352 0.001139287604019046 26.74936866760254 0.00114587158896029 26.7486457824707 C 0.001178944250568748 26.7450122833252 0.001203494379296899 26.74236869812012 0.00123800162691623 26.73873710632324 C 0.001244870130904019 26.73801422119141 0.0012555435532704 26.73691558837891 0.00126246886793524 26.73619270324707 C 0.00128861831035465 26.73346710205078 0.001310967141762376 26.73114013671875 0.001337923458777368 26.72841644287109 C 0.001348609919659793 26.72733116149902 0.001353440340608358 26.72684860229492 0.001364254741929471 26.72576332092285 C 0.001382404938340187 26.72394752502441 0.001424050307832658 26.71982002258301 0.001442558947019279 26.71800422668457 C 0.001449967618100345 26.71728134155273 0.00146267912350595 26.71603584289551 0.001470144605264068 26.71531295776367 C 0.001507520442828536 26.7116813659668 0.001523996121250093 26.71011161804199 0.001562805962748826 26.70648193359375 C 0.001566652324981987 26.70611953735352 0.001571791945025325 26.70562553405762 0.00157565250992775 26.70526504516602 C 0.00161446223501116 26.70163345336914 0.001644240575842559 26.69889259338379 0.001684483955614269 26.69526100158691 C 0.00169248937163502 26.69453811645508 0.001707935007289052 26.69316864013672 0.001715997233986855 26.69244575500488 C 0.001746448455378413 26.68972206115723 0.001768106478266418 26.68778038024902 0.001799364108592272 26.68505859375 C 0.001811755704693496 26.68397331237793 0.001823826227337122 26.68292999267578 0.001836345647461712 26.68184471130371 C 0.001857363153249025 26.68002891540527 0.001894885674118996 26.67681503295898 0.00191626138985157 26.67499923706055 C 0.001933294930495322 26.67355346679688 0.001940054236911237 26.67297172546387 0.001957315020263195 26.6715259552002 C 0.001989647280424833 26.66880416870117 0.002018977422267199 26.66639709472656 0.002052115742117167 26.66367530822754 C 0.002060944912955165 26.6629524230957 0.002068768721073866 26.66229248046875 0.002077654702588916 26.66156959533691 C 0.002122197300195694 26.65793991088867 0.002152027562260628 26.65554237365723 0.002198002766817808 26.65191268920898 C 0.002211715094745159 26.65082931518555 0.002233076840639114 26.64916801452637 0.002246916992589831 26.64808464050293 C 0.002270083641633391 26.64626884460449 0.002300688065588474 26.64389228820801 0.002324212808161974 26.6420783996582 C 0.002343006897717714 26.64063262939453 0.002360764658078551 26.63927459716797 0.002379785757511854 26.6378288269043 C 0.002403668593615294 26.63601493835449 0.002434502122923732 26.63368988037109 0.002458742819726467 26.63187599182129 C 0.002478047972545028 26.63043022155762 0.002492761937901378 26.62932395935059 0.002512293867766857 26.62787818908691 C 0.002549191936850548 26.62515640258789 0.002586702117696404 26.62239265441895 0.002624405547976494 26.61967086791992 C 0.002634370233863592 26.61894798278809 0.002634888980537653 26.61889839172363 0.002644910477101803 26.6181755065918 C 0.002695181639865041 26.61454772949219 0.002730811014771461 26.61200904846191 0.002782513620331883 26.6083812713623 C 0.002797928871586919 26.60729789733887 0.002814510837197304 26.60614967346191 0.002830053679645061 26.60506629943848 C 0.00285608391277492 26.60325241088867 0.002903199987486005 26.59999465942383 0.002929587848484516 26.59817886352539 C 0.002945386106148362 26.59709548950195 0.002963255858048797 26.59588050842285 0.002979181939736009 26.59479713439941 C 0.003005927661433816 26.59298324584961 0.003057487774640322 26.58950805664063 0.003084591357037425 26.58769416809082 C 0.003100814996287227 26.58661079406738 0.003111465601250529 26.58588981628418 0.003127817064523697 26.58480644226074 C 0.003182381857186556 26.58117866516113 0.003213661257177591 26.57912826538086 0.003269656794145703 26.57550048828125 C 0.0032752207480371 26.57513809204102 0.003276022616773844 26.57508087158203 0.00328160054050386 26.5747184753418 C 0.003337596077471972 26.57109260559082 0.003376763081178069 26.56858444213867 0.003434188896790147 26.56495666503906 C 0.003451305907219648 26.56387329101563 0.003473178949207067 26.56250762939453 0.003490423550829291 26.56142425537109 C 0.003519315272569656 26.55961227416992 0.003569212974980474 26.5565013885498 0.003598462324589491 26.55468940734863 C 0.003615961875766516 26.5536060333252 0.003632582956925035 26.55258369445801 0.003650210099294782 26.55150032043457 C 0.003679816843941808 26.54968643188477 0.003742649918422103 26.54586219787598 0.003772614058107138 26.54404830932617 C 0.003790538758039474 26.54296493530273 0.003800029633566737 26.54238510131836 0.003818081924691796 26.54130172729492 C 0.003938653506338596 26.53404998779297 0.004029654432088137 26.52869987487793 0.004155944101512432 26.52144813537598 C 0.004174761008471251 26.52036476135254 0.004192413296550512 26.51936149597168 0.00421135826036334 26.51828002929688 C 0.004243109375238419 26.51646614074707 0.004305388312786818 26.51293182373047 0.004337496589869261 26.5111198425293 C 0.004356738645583391 26.51003646850586 0.004375186748802662 26.50900077819824 0.004394556395709515 26.5079174041748 C 0.00442702230066061 26.50610542297363 0.004488577134907246 26.50268745422363 0.004521399736404419 26.50087356567383 C 0.004541024100035429 26.49979209899902 0.004557821433991194 26.49885749816895 0.004577573388814926 26.49777603149414 C 0.004643575754016638 26.49415016174316 0.004692151211202145 26.49151229858398 0.004759582225233316 26.48788833618164 C 0.004766293801367283 26.48752593994141 0.004765187855809927 26.48759078979492 0.004771913401782513 26.48723030090332 C 0.004839344415813684 26.48360633850098 0.004876909777522087 26.48160552978516 0.004945768974721432 26.47798156738281 C 0.004966285545378923 26.47689819335938 0.004987036343663931 26.47581672668457 0.005007680039852858 26.47473526000977 C 0.005042288452386856 26.47292327880859 0.005108986515551805 26.46945190429688 0.005143951624631882 26.4676399230957 C 0.005157912150025368 26.46691703796387 0.005187469534575939 26.46539306640625 0.005201486870646477 26.46467208862305 C 0.005236809141933918 26.46286010742188 0.005315583664923906 26.45883750915527 0.005351262632757425 26.4570255279541 C 0.005365506280213594 26.4563045501709 0.005386963486671448 26.45520973205566 0.005401263944804668 26.45448875427246 C 0.005544693674892187 26.44724273681641 0.005659840069711208 26.44153785705566 0.00580897880718112 26.43429183959961 C 0.005823816638439894 26.43357086181641 0.005845725070685148 26.4325122833252 0.005860619246959686 26.43179130554199 C 0.005898082628846169 26.42998123168945 0.005984192248433828 26.42583847045898 0.006022012326866388 26.42402839660645 C 0.006044650916010141 26.42294502258301 0.006056353915482759 26.42238616943359 0.006079119630157948 26.42130470275879 C 0.006136117037385702 26.41858673095703 0.006185674108564854 26.41625785827637 0.006243473850190639 26.41354179382324 C 0.006258849054574966 26.41282081604004 0.006280182395130396 26.41181182861328 0.006295613944530487 26.41109085083008 C 0.006373037118464708 26.40746879577637 0.006435172166675329 26.40459060668945 0.006514021661132574 26.40097045898438 C 0.006521864794194698 26.40060997009277 0.006522882729768753 26.40056800842285 0.006530739832669497 26.40020561218262 C 0.006609589327126741 26.39658546447754 0.006650293245911598 26.39472961425781 0.006730569060891867 26.39110946655273 C 0.006754479836672544 26.39002799987793 0.006776484660804272 26.3890438079834 0.006800522562116385 26.38796234130859 C 0.006840838585048914 26.38615036010742 0.006922842003405094 26.38248634338379 0.006963514257222414 26.38067436218262 C 0.006987849250435829 26.37959289550781 0.006999784149229527 26.37906074523926 0.007024245802313089 26.37797927856445 C 0.007085521705448627 26.37526512145996 0.007143574766814709 26.37272453308105 0.007205652538686991 26.37000846862793 C 0.007222158368676901 26.36928749084473 0.007242859806865454 26.36837768554688 0.007259421981871128 26.36765670776367 C 0.007342548575252295 26.36403656005859 0.007406683173030615 26.36126899719238 0.00749123515561223 26.3576488494873 C 0.007508052047342062 26.3569278717041 0.007510791532695293 26.3568172454834 0.007527664303779602 26.3560962677002 C 0.007612216286361217 26.35247611999512 0.007635632995516062 26.35148048400879 0.007721610367298126 26.34786033630371 C 0.007755751721560955 26.34642028808594 0.007768253795802593 26.34589767456055 0.007802620995789766 26.34445762634277 C 0.007845787331461906 26.34264755249023 0.007926507852971554 26.33927726745605 0.007970030419528484 26.33746910095215 C 0.007996059954166412 26.33638763427734 0.008020676672458649 26.33536529541016 0.008046833798289299 26.33428382873535 C 0.008090712130069733 26.33247566223145 0.008181118406355381 26.32876014709473 0.008225353434681892 26.32695007324219 C 0.008242988027632236 26.32622909545898 0.008273838087916374 26.3249626159668 0.008291530422866344 26.32424163818359 C 0.00838035624474287 26.32062339782715 0.008447915315628052 26.31789398193359 0.008538166061043739 26.31427574157715 C 0.008547153323888779 26.31391525268555 0.008568452671170235 26.31306838989258 0.008577453903853893 26.31270790100098 C 0.008667704649269581 26.3090877532959 0.008696189150214195 26.30795288085938 0.00878786388784647 26.30433464050293 C 0.008815206587314606 26.30325317382813 0.008841543458402157 26.30221748352051 0.00886901281774044 26.30113792419434 C 0.008915027603507042 26.2993278503418 0.009003309532999992 26.29587173461914 0.009049680083990097 26.29406356811523 C 0.009077403694391251 26.29298210144043 0.009099937044084072 26.29210472106934 0.009127787314355373 26.29102325439453 C 0.009197610430419445 26.28831100463867 0.009259023703634739 26.28595161437988 0.00932964775711298 26.28323745727539 C 0.009348412044346333 26.28251838684082 0.00937103945761919 26.28164291381836 0.009389860555529594 26.28092384338379 C 0.009484381414949894 26.27730560302734 0.009560958482325077 26.27439880371094 0.009656903333961964 26.27078056335449 C 0.00966645497828722 26.27042007446289 0.009681197814643383 26.26987075805664 0.009690763428807259 26.26951026916504 C 0.009762722067534924 26.26679801940918 0.009842251427471638 26.26383018493652 0.009915010072290897 26.26111602783203 C 0.00994404498487711 26.26003646850586 0.009978096932172775 26.25877380371094 0.01000725850462914 26.25769424438477 C 0.01005612034350634 26.25588607788086 0.01014699786901474 26.25253486633301 0.01019621547311544 26.2507266998291 C 0.01022563129663467 26.24964714050293 0.01025031507015228 26.24873924255371 0.01027985755354166 26.24765968322754 C 0.010378647595644 26.24404335021973 0.01041391119360924 26.24275970458984 0.01051412336528301 26.23914337158203 C 0.01052408386021852 26.23878479003906 0.01054225768893957 26.23812294006348 0.0105522321537137 26.23776245117188 C 0.01065244432538748 26.23414611816406 0.01073491387069225 26.23119354248047 0.01083654817193747 26.22757720947266 C 0.01085677929222584 26.22685623168945 0.01087216287851334 26.22631645202637 0.01089244987815619 26.22559547424316 C 0.01094344444572926 26.22378730773926 0.01106343138962984 26.21954727172852 0.01111478172242641 26.21773910522461 C 0.01114550791680813 26.21665954589844 0.01117897685617208 26.21548843383789 0.01120983064174652 26.21440887451172 C 0.01126153580844402 26.21260070800781 0.01137164328247309 26.20876693725586 0.01142370421439409 26.20695877075195 C 0.01144446991384029 26.20623779296875 0.0114690437912941 26.20538330078125 0.01148986630141735 26.20466423034668 C 0.01159434393048286 26.2010498046875 0.01167012006044388 26.19844436645508 0.01177601795643568 26.1948299407959 C 0.01177601795643568 26.1948299407959 0.01178351417183876 26.19457244873047 0.01178351417183876 26.19457244873047 C 0.01188941206783056 26.19095802307129 0.01198946218937635 26.18756675720215 0.01209678221493959 26.18395233154297 C 0.01210746075958014 26.18359184265137 0.01210940442979336 26.18352890014648 0.01212009787559509 26.18317031860352 C 0.01222741696983576 26.17955589294434 0.01228523440659046 26.17761993408203 0.01239397469907999 26.17400550842285 C 0.01242639124393463 26.17292594909668 0.01243253983557224 26.17272186279297 0.01246508397161961 26.1716423034668 C 0.01257382333278656 26.16802787780762 0.01260937564074993 26.16685676574707 0.01271953620016575 26.16324234008789 C 0.01274142879992723 26.16252326965332 0.01275325845927 26.16213226318359 0.01277520786970854 26.16141319274902 C 0.01299552898854017 26.15418434143066 0.01318600494414568 26.14801979064941 0.01341200619935989 26.14079284667969 C 0.01343449018895626 26.14007377624512 0.01343677379190922 26.1400032043457 0.01345931459218264 26.13928413391113 C 0.01357231475412846 26.13567161560059 0.01360890362411737 26.13450622558594 0.01372332405298948 26.13089370727539 C 0.0137574290856719 26.12981414794922 0.0137823224067688 26.12903213500977 0.01381655503064394 26.12795257568359 C 0.01387394219636917 26.12614631652832 0.01400747895240784 26.12195777893066 0.01406522188335657 26.12015151977539 C 0.01408823952078819 26.11943244934082 0.01410940568894148 26.1187686920166 0.01413248013705015 26.11804962158203 C 0.01424831990152597 26.11443710327148 0.01434163190424442 26.11154365539551 0.01445889100432396 26.10793113708496 C 0.01445889100432396 26.10793113708496 0.01446033269166946 26.10788726806641 0.01446033269166946 26.10788726806641 C 0.01457759086042643 26.10427474975586 0.01468087360262871 26.10111236572266 0.01479955110698938 26.09750175476074 C 0.01482316013425589 26.09678268432617 0.01483402028679848 26.09645652770996 0.01485768519341946 26.09573745727539 C 0.01494669355452061 26.0930290222168 0.01503176521509886 26.09046173095703 0.01512157171964645 26.08775329589844 C 0.01515736430883408 26.0866756439209 0.01519270427525043 26.08561515808105 0.01522862445563078 26.08453559875488 C 0.01528884936124086 26.08272933959961 0.01541424542665482 26.07898330688477 0.01547482516616583 26.07717704772949 C 0.01551103964447975 26.07609939575195 0.01552627142518759 26.07564163208008 0.01556261256337166 26.07456398010254 C 0.01580564118921757 26.06734085083008 0.01600148528814316 26.06159019470215 0.01625018566846848 26.05436897277832 C 0.01627491787075996 26.05364990234375 0.01630397327244282 26.05281257629395 0.01632876321673393 26.05209350585938 C 0.01639111526310444 26.05028915405273 0.01652855053544044 26.04631996154785 0.01659125834703445 26.04451560974121 C 0.01662873663008213 26.04343605041504 0.01666728034615517 26.04233169555664 0.01670488715171814 26.0412540435791 C 0.01679947786033154 26.03854560852051 0.01689173094928265 26.03590774536133 0.01698711887001991 26.03319931030273 C 0.01699976623058319 26.03284072875977 0.01702865585684776 26.03201675415039 0.01704131625592709 26.03165817260742 C 0.01729568652808666 26.02443885803223 0.01752418279647827 26.01802635192871 0.01778421923518181 26.01080894470215 C 0.01779716089367867 26.01045036315918 0.01782058924436569 26.00980186462402 0.01783354580402374 26.00944328308105 C 0.01793105900287628 26.00673675537109 0.01804154738783836 26.00369262695313 0.01813985779881477 26.00098609924316 C 0.01816599629819393 26.00026702880859 0.0182139091193676 25.99895286560059 0.01824010349810123 25.99823379516602 C 0.01830599643290043 25.99642944335938 0.01846237666904926 25.99215888977051 0.01852862536907196 25.9903564453125 C 0.0185550432652235 25.98963737487793 0.01858476363122463 25.98882484436035 0.01861123740673065 25.98810768127441 C 0.018876938149333 25.98089027404785 0.01909062080085278 25.97514724731445 0.01936198584735394 25.96793365478516 C 0.01938899233937263 25.96721458435059 0.01942544803023338 25.96624755859375 0.01945251226425171 25.96553039550781 C 0.01952053047716618 25.96372604370117 0.01967462152242661 25.95965003967285 0.01974299363791943 25.95784568786621 C 0.01978388428688049 25.9567699432373 0.01981607265770435 25.9559211730957 0.01985708996653557 25.95484352111816 C 0.01992581598460674 25.95304107666016 0.02008943445980549 25.94875907897949 0.02015851438045502 25.94695663452148 C 0.02018605545163155 25.94623756408691 0.02020718529820442 25.94568252563477 0.02023478224873543 25.94496536254883 C 0.0205118078738451 25.93775177001953 0.02075404487550259 25.93151092529297 0.02103672735393047 25.9242992401123 C 0.02105079218745232 25.9239387512207 0.02107850648462772 25.9232349395752 0.02109258435666561 25.92287635803223 C 0.02123392559587955 25.91926956176758 0.02128845639526844 25.91788482666016 0.0214312132447958 25.91427993774414 C 0.02145959436893463 25.91356086730957 0.0214912798255682 25.91275978088379 0.02151971682906151 25.91204261779785 C 0.02166247367858887 25.9084358215332 0.0217499416321516 25.9062385559082 0.02189411222934723 25.90263366699219 C 0.02190845645964146 25.90227508544922 0.0219026654958725 25.90241813659668 0.02191702462732792 25.90205955505371 C 0.02220536395907402 25.89484977722168 0.02246222645044327 25.88848686218262 0.02275622077286243 25.88127708435059 C 0.02278546988964081 25.88055992126465 0.02280452847480774 25.88009452819824 0.02283383533358574 25.87937545776367 C 0.02298083156347275 25.87577247619629 0.023026242852211 25.87466239929199 0.02317465096712112 25.87105941772461 C 0.0232189055532217 25.8699836730957 0.02322625741362572 25.86980247497559 0.02327063679695129 25.86872673034668 C 0.02341904677450657 25.8651237487793 0.02352091297507286 25.86266326904297 0.0236707367002964 25.85905838012695 C 0.0236707367002964 25.85905838012695 0.02367648668587208 25.85892105102539 0.02367648668587208 25.85892105102539 C 0.02382630854845047 25.85531616210938 0.02397304587066174 25.85180282592773 0.02412428148090839 25.84819984436035 C 0.02412428148090839 25.84819984436035 0.02413728646934032 25.84789085388184 0.02413728646934032 25.84789085388184 C 0.02428852207958698 25.84428787231445 0.02440762333571911 25.84146308898926 0.02456027083098888 25.83786010742188 C 0.02459064126014709 25.83714294433594 0.02458991669118404 25.83716201782227 0.02462034299969673 25.83644485473633 C 0.02477299049496651 25.83284187316895 0.02484157495200634 25.83122825622559 0.02499563433229923 25.82762718200684 C 0.02502628415822983 25.8269100189209 0.02504505775868893 25.82646751403809 0.025075763463974 25.82575035095215 C 0.02553794346749783 25.81494331359863 0.02593844942748547 25.80570602416992 0.0264133308082819 25.79490089416504 C 0.0264448206871748 25.7941837310791 0.02646982669830322 25.79361724853516 0.0265013724565506 25.79290008544922 C 0.02662009187042713 25.79019737243652 0.02674027346074581 25.7874813079834 0.02685978822410107 25.78478050231934 C 0.02689155749976635 25.7840633392334 0.02694017626345158 25.7829647064209 0.02697200141847134 25.78224754333496 C 0.02729141153395176 25.77504539489746 0.02756321430206299 25.76897621154785 0.02788826636970043 25.76177597045898 C 0.02788826636970043 25.76177597045898 0.0279038455337286 25.76143074035645 0.0279038455337286 25.76143074035645 C 0.0280663724988699 25.75783157348633 0.02819585986435413 25.75497627258301 0.02835979498922825 25.75137519836426 C 0.02837611362338066 25.75101661682129 0.02839948423206806 25.7505054473877 0.02841581590473652 25.75014686584473 C 0.02857975289225578 25.74654579162598 0.02865436486899853 25.74491500854492 0.02881971187889576 25.74131393432617 C 0.02885259874165058 25.74059867858887 0.02887805923819542 25.74004173278809 0.02891100384294987 25.73932456970215 C 0.02924169600009918 25.73212623596191 0.02953287772834301 25.72584342956543 0.02986920811235905 25.7186450958252 C 0.02988594584167004 25.71828651428223 0.02988434582948685 25.71832275390625 0.02990109845995903 25.71796417236328 C 0.03006926365196705 25.71436500549316 0.03016709350049496 25.7122802734375 0.03033666871488094 25.70868301391602 C 0.03038725815713406 25.70760726928711 0.0303910281509161 25.70752906799316 0.03044174239039421 25.70645332336426 C 0.03056892193853855 25.70375442504883 0.03070111945271492 25.70096588134766 0.03082909435033798 25.69826698303223 C 0.03086309880018234 25.69755172729492 0.03089673444628716 25.69684219360352 0.03093079663813114 25.69612503051758 C 0.0312727615237236 25.68892860412598 0.0315701812505722 25.68272399902344 0.03191778063774109 25.67552947998047 C 0.03193507716059685 25.6751708984375 0.03194156661629677 25.67503929138184 0.03195887431502342 25.67468070983887 C 0.03213267773389816 25.67108345031738 0.03223429992794991 25.66898918151855 0.03240950778126717 25.66539192199707 C 0.03244437649846077 25.66467475891113 0.03246943652629852 25.66416168212891 0.0325043648481369 25.66344451904297 C 0.03267957270145416 25.65984725952148 0.03274861350655556 25.6584358215332 0.03292522951960564 25.65483856201172 C 0.03294280543923378 25.65447998046875 0.03298814594745636 25.65355491638184 0.0330057330429554 25.65319633483887 C 0.03335896506905556 25.64600372314453 0.03368400409817696 25.63943862915039 0.03404286503791809 25.63224792480469 C 0.03404286503791809 25.63224792480469 0.03406137973070145 25.63187789916992 0.03406137973070145 25.63187789916992 C 0.03424081206321716 25.62828063964844 0.03436022251844406 25.62589645385742 0.0345410592854023 25.62230110168457 C 0.03457704558968544 25.62158584594727 0.03460318967700005 25.62106513977051 0.03463923186063766 25.6203498840332 C 0.03477485850453377 25.61765289306641 0.03492388501763344 25.61470603942871 0.03506030514836311 25.61200904846191 C 0.03509654477238655 25.61129379272461 0.03513529151678085 25.61052703857422 0.03517158702015877 25.60981178283691 C 0.03553607314825058 25.60262107849121 0.03583111986517906 25.59684562683105 0.03620123118162155 25.58965682983398 C 0.03623805567622185 25.58894157409668 0.03627515956759453 25.58822441101074 0.036312036216259 25.5875072479248 C 0.03645109385251999 25.58481216430664 0.03659665957093239 25.58199119567871 0.03673650696873665 25.57929611206055 C 0.03677360713481903 25.57858085632324 0.03681471943855286 25.57778739929199 0.03685187920928001 25.57707214355469 C 0.03699172288179398 25.57437705993652 0.03713352978229523 25.57165718078613 0.03727416694164276 25.56896209716797 C 0.03731155022978783 25.56824684143066 0.03735041990876198 25.5674991607666 0.03738785535097122 25.5667839050293 C 0.03776359185576439 25.55959701538086 0.03808121755719185 25.55356788635254 0.03846257552504539 25.5463809967041 C 0.03848155587911606 25.54602432250977 0.03853339329361916 25.5450496673584 0.03855239227414131 25.54469299316406 C 0.03874306753277779 25.54109954833984 0.03881065547466278 25.53983116149902 0.03900273889303207 25.5362377166748 C 0.0390409529209137 25.5355224609375 0.03908263146877289 25.53474235534668 0.03912090510129929 25.53402709960938 C 0.03926496580243111 25.53133392333984 0.03941557556390762 25.52853202819824 0.03956042975187302 25.52583694458008 C 0.03959892317652702 25.52512168884277 0.03963807225227356 25.52439117431641 0.03967662155628204 25.5236759185791 C 0.04006359726190567 25.51649284362793 0.0403943732380867 25.51039695739746 0.04078696668148041 25.50321388244629 C 0.04080650582909584 25.50285720825195 0.0408397763967514 25.50225067138672 0.04085933044552803 25.50189208984375 C 0.04105562344193459 25.49830055236816 0.04115147143602371 25.49655342102051 0.04134917259216309 25.49296188354492 C 0.04138850048184395 25.49224662780762 0.0414121225476265 25.49181747436523 0.04145150631666183 25.49110221862793 C 0.04164920747280121 25.48751068115234 0.04177555069327354 25.48522567749023 0.04197465255856514 25.48163414001465 C 0.04197465255856514 25.48163414001465 0.04200426116585732 25.48109817504883 0.04200426116585732 25.48109817504883 C 0.04240246489644051 25.47391700744629 0.04276592656970024 25.4674072265625 0.04316974431276321 25.46022796630859 C 0.04318983852863312 25.45987129211426 0.04324176907539368 25.45894813537598 0.04326188191771507 25.45859146118164 C 0.04346378892660141 25.45500183105469 0.04354491457343102 25.45356369018555 0.04374822601675987 25.44997406005859 C 0.04378866776823997 25.44926071166992 0.04381633549928665 25.44877052307129 0.04385683313012123 25.44805717468262 C 0.04406014457345009 25.44446754455566 0.04414107277989388 25.44304084777832 0.04434578865766525 25.439453125 C 0.04438650608062744 25.4387378692627 0.04440682381391525 25.43837928771973 0.04444759711623192 25.43766403198242 C 0.04485702514648438 25.43048667907715 0.04519492760300636 25.42460250854492 0.045609962195158 25.41742515563965 C 0.04565126448869705 25.41670989990234 0.04569302126765251 25.41598892211914 0.04573438316583633 25.41527557373047 C 0.04589028283953667 25.41258430480957 0.04605737328529358 25.40970039367676 0.04621406272053719 25.40700912475586 C 0.04625564068555832 25.40629386901855 0.04629619792103767 25.40559768676758 0.04633783549070358 25.40488243103027 C 0.04654675349593163 25.40129470825195 0.04664044454693794 25.39969062805176 0.04685076326131821 25.39610290527344 C 0.04687169194221497 25.39574432373047 0.04690670594573021 25.39514541625977 0.04692764952778816 25.39478874206543 C 0.04713796824216843 25.39120101928711 0.04732905700802803 25.38795280456543 0.04754078015685081 25.38436508178711 C 0.04754078015685081 25.38436508178711 0.04755210503935814 25.38417434692383 0.04755210503935814 25.38417434692383 C 0.04776382446289063 25.38058662414551 0.04792777821421623 25.37781715393066 0.04814089834690094 25.37422943115234 C 0.04818331450223923 25.37351608276367 0.04820480197668076 25.37315559387207 0.04824727028608322 25.3724422454834 C 0.04846039041876793 25.36885452270508 0.04854682087898254 25.36740493774414 0.04876134172081947 25.36381912231445 C 0.04878268763422966 25.36346054077148 0.04884354397654533 25.36244201660156 0.04886490479111671 25.36208534240723 C 0.04907942563295364 25.35849952697754 0.04922228306531906 25.35611724853516 0.04943820461630821 25.35253143310547 C 0.04945969209074974 25.35217475891113 0.04945425689220428 25.35226440429688 0.04947575554251671 25.35190773010254 C 0.04990760236978531 25.34473419189453 0.05030614510178566 25.33815765380859 0.05074358731508255 25.33098602294922 C 0.05078711360692978 25.33027267456055 0.05077047273516655 25.33054733276367 0.05081405490636826 25.32983207702637 C 0.05103277415037155 25.32624626159668 0.05115194618701935 25.32429885864258 0.05137206986546516 25.32071495056152 C 0.05141587182879448 25.31999969482422 0.05142824351787567 25.31979751586914 0.05147210136055946 25.31908416748047 C 0.05213246867060661 25.30832862854004 0.05271515995264053 25.29892921447754 0.05338811501860619 25.28817749023438 C 0.05343274772167206 25.2874641418457 0.05344450101256371 25.28727722167969 0.05348918959498405 25.28656387329102 C 0.05371350795030594 25.28297996520996 0.05383019894361496 25.2811222076416 0.05405591800808907 25.27753829956055 C 0.05410082638263702 25.27682495117188 0.05408888310194016 25.27701377868652 0.05413384735584259 25.27629852294922 C 0.05481099709868431 25.26554870605469 0.05543150752782822 25.25578880310059 0.05612123757600784 25.24504089355469 C 0.05614412203431129 25.24468421936035 0.05617491528391838 25.24420547485352 0.05619781091809273 25.24384880065918 C 0.0564277209341526 25.24026679992676 0.05657579749822617 25.23796653747559 0.05680710449814796 25.23438453674316 C 0.05683012679219246 25.23402786254883 0.05684869363903999 25.23373985290527 0.05687172710895538 25.23338317871094 C 0.05733434483408928 25.22621917724609 0.05777309462428093 25.21946716308594 0.05824129655957222 25.21230316162109 C 0.05824129655957222 25.21230316162109 0.05824734643101692 25.21221160888672 0.05824734643101692 25.21221160888672 C 0.05848144739866257 25.2086296081543 0.05868522077798843 25.20552253723145 0.058920718729496 25.20194053649902 C 0.05894415825605392 25.20158386230469 0.05896041914820671 25.20133781433105 0.05898386985063553 25.20098114013672 C 0.0592193678021431 25.19740104675293 0.05938656628131866 25.19486618041992 0.05962345749139786 25.19128608703613 C 0.05964703485369682 25.1909294128418 0.05964931845664978 25.19089317321777 0.05967290699481964 25.19053649902344 C 0.06038358807563782 25.17979621887207 0.06104958057403564 25.1698169708252 0.06177281960844994 25.15907859802246 C 0.06179681420326233 25.15872383117676 0.06182067096233368 25.15836906433105 0.06184467673301697 25.15801239013672 C 0.06208575516939163 25.15443229675293 0.062264084815979 25.15179252624512 0.06250655651092529 25.14821434020996 C 0.06253068894147873 25.14785766601563 0.06252127885818481 25.14799690246582 0.06254541873931885 25.14764022827148 C 0.06303036957979202 25.14048194885254 0.06350471079349518 25.13352203369141 0.06399523466825485 25.12636566162109 C 0.06399523466825485 25.12636566162109 0.06399565190076828 25.12635803222656 0.06399565190076828 25.12635803222656 C 0.06424091756343842 25.12277984619141 0.06444858014583588 25.11975860595703 0.06469523906707764 25.11618232727051 C 0.0647197812795639 25.11582565307617 0.06475044786930084 25.11538124084473 0.0647750049829483 25.11502456665039 C 0.06502166390419006 25.11144638061523 0.06522693485021591 25.10847854614258 0.0654749870300293 25.10490036010742 C 0.0654749870300293 25.10490036010742 0.0654754564166069 25.10489273071289 0.0654754564166069 25.10489273071289 C 0.0672118216753006 25.0798511505127 0.06896349787712097 25.05508041381836 0.07076811790466309 25.03005599975586 C 0.07076811790466309 25.03005599975586 0.07080624252557755 25.02952766418457 0.07080624252557755 25.02952766418457 C 0.07106404006481171 25.02595329284668 0.07129745930433273 25.02272415161133 0.07155665755271912 25.01914978027344 C 0.07155665755271912 25.01914978027344 0.07156456261873245 25.01904106140137 0.07156456261873245 25.01904106140137 C 0.07208295911550522 25.01189231872559 0.07259912043809891 25.00481224060059 0.07312307506799698 24.99766540527344 C 0.07312307506799698 24.99766540527344 0.0731317549943924 24.9975471496582 0.0731317549943924 24.9975471496582 C 0.07339373975992203 24.99397277832031 0.07361602038145065 24.9909496307373 0.07387938350439072 24.98737716674805 C 0.07390560209751129 24.98702049255371 0.0739172175526619 24.98686218261719 0.07394344359636307 24.98650741577148 C 0.07420681416988373 24.98293304443359 0.07443878054618835 24.97979545593262 0.07470354437828064 24.97622108459473 C 0.07470354437828064 24.97622108459473 0.07470703125 24.97617530822754 0.07470703125 24.97617530822754 C 0.07523655146360397 24.96902847290039 0.07574855536222458 24.96215629577637 0.07628363370895386 24.95501136779785 C 0.07631026208400726 24.95465660095215 0.07631260901689529 24.95462417602539 0.07633925229310989 24.95426940917969 C 0.07660679519176483 24.95069694519043 0.07678276300430298 24.9483528137207 0.07705169171094894 24.94478225708008 C 0.07707845419645309 24.94442558288574 0.07712767273187637 24.94377136230469 0.07715445756912231 24.94341659545898 C 0.07796124368906021 24.93270111083984 0.07871568948030472 24.92276191711426 0.07953498512506485 24.91205024719238 C 0.07953498512506485 24.91205024719238 0.079567551612854 24.91162490844727 0.079567551612854 24.91162490844727 C 0.07984065264463425 24.90805435180664 0.08006305992603302 24.90515518188477 0.08033754676580429 24.90158462524414 C 0.08036486059427261 24.90122985839844 0.08036236464977264 24.90126037597656 0.08038969337940216 24.90090560913086 C 0.08121315389871597 24.89019584655762 0.08201936632394791 24.87979125976563 0.08285532146692276 24.86908531188965 C 0.08285532146692276 24.86908531188965 0.08286023885011673 24.86902236938477 0.08286023885011673 24.86902236938477 C 0.08313889056444168 24.86545372009277 0.08339344710111618 24.8621997833252 0.08367348462343216 24.8586311340332 C 0.08367348462343216 24.8586311340332 0.08371219784021378 24.85813903808594 0.08371219784021378 24.85813903808594 C 0.08455231785774231 24.84743309020996 0.08537616580724716 24.83701324462891 0.08622877299785614 24.8263111114502 C 0.08622877299785614 24.8263111114502 0.08624333888292313 24.82612800598145 0.08624333888292313 24.82612800598145 C 0.08652753382921219 24.82256126403809 0.0867936760187149 24.81922912597656 0.08707926422357559 24.8156623840332 C 0.08707926422357559 24.8156623840332 0.08709511160850525 24.81546401977539 0.08709511160850525 24.81546401977539 C 0.09023658931255341 24.77622604370117 0.0934518501162529 24.73713493347168 0.09676092118024826 24.69794464111328 C 0.09676092118024826 24.69794464111328 0.09676944464445114 24.69784355163574 0.09676944464445114 24.69784355163574 C 0.6054636836051941 18.67324638366699 3.092302083969116 13.212082862854 6.905468940734863 8.966059684753418 C 6.905468940734863 8.966059684753418 6.905647277832031 8.965861320495605 6.905647277832031 8.965861320495605 C 6.910157203674316 8.96083927154541 6.914295673370361 8.956234931945801 6.918809413909912 8.951216697692871 C 6.91892147064209 8.951091766357422 6.919074058532715 8.950922012329102 6.919186592102051 8.950797080993652 C 6.925957202911377 8.943268775939941 6.932215213775635 8.936318397521973 6.93899393081665 8.928798675537109 C 6.939331531524658 8.928423881530762 6.93946361541748 8.928277969360352 6.939801216125488 8.927903175354004 C 6.946579933166504 8.920383453369141 6.952744007110596 8.913552284240723 6.959531307220459 8.906040191650391 C 6.959756374359131 8.905791282653809 6.960010051727295 8.905510902404785 6.960235118865967 8.905261039733887 C 6.964194297790527 8.90087890625 6.96846342086792 8.896158218383789 6.97242546081543 8.891777992248535 C 6.972876071929932 8.891280174255371 6.973268032073975 8.890846252441406 6.973719120025635 8.890348434448242 C 6.979945659637451 8.883466720581055 6.986509323120117 8.876221656799316 6.992743015289307 8.869345664978027 C 6.993420124053955 8.868598937988281 6.993927478790283 8.868040084838867 6.994604587554932 8.867293357849121 C 7.000839233398438 8.860419273376465 7.007066249847412 8.853559494018555 7.013308048248291 8.846692085266113 C 7.014098644256592 8.845821380615234 7.015003681182861 8.844826698303223 7.01579475402832 8.84395694732666 C 7.019199371337891 8.840210914611816 7.022762298583984 8.836294174194336 7.026169300079346 8.832550048828125 C 7.026847362518311 8.831805229187012 7.027664184570313 8.830907821655273 7.028342723846436 8.830162048339844 C 7.030614376068115 8.827666282653809 7.03218412399292 8.825942993164063 7.034456729888916 8.823448181152344 C 7.034683227539063 8.823199272155762 7.034903526306152 8.822957992553711 7.035129547119141 8.822709083557129 C 7.039106845855713 8.818343162536621 7.043054103851318 8.814013481140137 7.047033786773682 8.809650421142578 C 7.047826290130615 8.808781623840332 7.048422336578369 8.808128356933594 7.049214839935303 8.807260513305664 C 7.054901599884033 8.801028251647949 7.062010288238525 8.793244361877441 7.067702770233154 8.787017822265625 C 7.068609714508057 8.786026000976563 7.069581031799316 8.784963607788086 7.070487976074219 8.783971786499023 C 7.073904037475586 8.78023624420166 7.077297687530518 8.776528358459473 7.080715656280518 8.772794723510742 C 7.081509590148926 8.771926879882813 7.082023143768311 8.771366119384766 7.082817077636719 8.770499229431152 C 7.08509635925293 8.768010139465332 7.086684703826904 8.766276359558105 7.088964462280273 8.763788223266602 C 7.089418411254883 8.763293266296387 7.089957237243652 8.76270580291748 7.090411186218262 8.762210845947266 C 7.093831539154053 8.758479118347168 7.098001956939697 8.753931045532227 7.101424217224121 8.750201225280762 C 7.102333068847656 8.749211311340332 7.102998733520508 8.748485565185547 7.103907585144043 8.747495651245117 C 7.109612464904785 8.741280555725098 7.11651086807251 8.733772277832031 7.12222146987915 8.72756290435791 C 7.123244762420654 8.726449966430664 7.124151229858398 8.725465774536133 7.125174522399902 8.724352836608887 C 7.128602027893066 8.720627784729004 7.131625175476074 8.717343330383301 7.135054111480713 8.713620185852051 C 7.135964393615723 8.712632179260254 7.136813640594482 8.711709022521973 7.13772439956665 8.710721015930176 C 7.140010833740234 8.708239555358887 7.141170978546143 8.706979751586914 7.143458366394043 8.704499244689941 C 7.144369125366211 8.703511238098145 7.145288944244385 8.702513694763184 7.146199703216553 8.701526641845703 C 7.149631023406982 8.697805404663086 7.152519702911377 8.694673538208008 7.155953407287598 8.690954208374023 C 7.156864643096924 8.689967155456543 7.157885551452637 8.688861846923828 7.158796787261963 8.687874794006348 C 7.164520263671875 8.681676864624023 7.170994281768799 8.67467212677002 7.176723480224609 8.668479919433594 C 7.177978038787842 8.667123794555664 7.179304599761963 8.665690422058105 7.180559635162354 8.664334297180176 C 7.183424949645996 8.661238670349121 7.185861587524414 8.658607482910156 7.188728332519531 8.655512809753418 C 7.190097808837891 8.654034614562988 7.191425800323486 8.65260124206543 7.192796230316162 8.651122093200684 C 7.194516181945801 8.649266242980957 7.196280956268311 8.647363662719727 7.198001861572266 8.6455078125 C 7.199486255645752 8.643906593322754 7.200939178466797 8.642340660095215 7.202424049377441 8.640740394592285 C 7.204719066619873 8.638266563415527 7.207535743713379 8.635231971740723 7.209831714630127 8.632759094238281 C 7.211317539215088 8.631158828735352 7.212778091430664 8.629586219787598 7.214264392852783 8.627985954284668 C 7.215986728668213 8.626132011413574 7.2174973487854 8.624505996704102 7.219220638275146 8.622652053833008 C 7.221621990203857 8.620068550109863 7.224165916442871 8.617332458496094 7.226568222045898 8.614749908447266 C 7.228291988372803 8.612896919250488 7.229374408721924 8.611733436584473 7.231098651885986 8.609881401062012 C 7.232815265655518 8.608036994934082 7.234513759613037 8.606212615966797 7.236230373382568 8.604368209838867 C 7.237955093383789 8.602516174316406 7.23951530456543 8.60084056854248 7.241240501403809 8.598989486694336 C 7.243530750274658 8.596531867980957 7.245898723602295 8.593991279602051 7.248189449310303 8.591533660888672 C 7.249340057373047 8.590299606323242 7.251439094543457 8.58804988861084 7.252589702606201 8.58681583404541 C 7.254423141479492 8.584850311279297 7.256393432617188 8.58273983001709 7.258226871490479 8.580775260925293 C 7.260529518127441 8.57830810546875 7.261972904205322 8.576762199401855 7.264276027679443 8.574295997619629 C 7.266110420227051 8.572332382202148 7.267776489257813 8.570549011230469 7.269611835479736 8.568585395812988 C 7.271339893341064 8.566736221313477 7.272346019744873 8.565659523010254 7.274074554443359 8.563811302185059 C 7.276712894439697 8.560989379882813 7.279195785522461 8.558334350585938 7.281835079193115 8.555514335632324 C 7.28298807144165 8.554282188415527 7.284886837005615 8.552254676818848 7.28603982925415 8.551022529602051 C 7.287876605987549 8.549060821533203 7.289540767669678 8.547283172607422 7.291378021240234 8.545322418212891 C 7.292531490325928 8.54409122467041 7.294437408447266 8.542056083679199 7.295591354370117 8.540824890136719 C 7.298118114471436 8.538128852844238 7.300686359405518 8.53538990020752 7.303214550018311 8.532694816589355 C 7.304945468902588 8.530848503112793 7.306249618530273 8.529458999633789 7.307981014251709 8.527613639831543 C 7.309705257415771 8.525776863098145 7.311442852020264 8.52392578125 7.313167095184326 8.522089958190918 C 7.315476894378662 8.51962947845459 7.316755771636963 8.518267631530762 7.319066047668457 8.515809059143066 C 7.321021556854248 8.513728141784668 7.323006629943848 8.511615753173828 7.324962615966797 8.50953483581543 C 7.326118469238281 8.508305549621582 7.328061103820801 8.506239891052246 7.329216957092285 8.505010604858398 C 7.331978797912598 8.502074241638184 7.334522247314453 8.499371528625488 7.33728551864624 8.49643611907959 C 7.338441848754883 8.495207786560059 7.33972692489624 8.493843078613281 7.340883731842041 8.49261474609375 C 7.34295654296875 8.490414619445801 7.344805240631104 8.488451957702637 7.346879005432129 8.486251831054688 C 7.34803581237793 8.485023498535156 7.34966516494751 8.483294486999512 7.350822448730469 8.482067108154297 C 7.353472709655762 8.479256629943848 7.356234073638916 8.47632884979248 7.358885288238525 8.473518371582031 C 7.360621929168701 8.471677780151367 7.361069202423096 8.47120475769043 7.36280632019043 8.469364166259766 C 7.36488151550293 8.467165946960449 7.36705207824707 8.46486759185791 7.369128227233887 8.46267032623291 C 7.370865821838379 8.460829734802246 7.371871471405029 8.459766387939453 7.37360954284668 8.457926750183105 C 7.375916957855225 8.455485343933105 7.378216743469238 8.453052520751953 7.380524635314941 8.45061206817627 C 7.381684303283691 8.449386596679688 7.383325576782227 8.447651863098145 7.384484767913818 8.446426391601563 C 7.387139797210693 8.443619728088379 7.389832019805908 8.440775871276855 7.392488479614258 8.437971115112305 C 7.393648147583008 8.436745643615723 7.395016670227051 8.435301780700684 7.396176815032959 8.434077262878418 C 7.398371696472168 8.431760787963867 7.400458335876465 8.429558753967285 7.402653694152832 8.427243232727051 C 7.403814315795898 8.426018714904785 7.40491247177124 8.424860000610352 7.406073570251465 8.423636436462402 C 7.408847332000732 8.420711517333984 7.411788940429688 8.417611122131348 7.41456413269043 8.414687156677246 C 7.415725708007813 8.413463592529297 7.416903972625732 8.412222862243652 7.418065547943115 8.410999298095703 C 7.420378684997559 8.408563613891602 7.422797203063965 8.406018257141113 7.425111293792725 8.403582572937012 C 7.425692081451416 8.402971267700195 7.427011966705322 8.401581764221191 7.427593231201172 8.400970458984375 C 7.43048620223999 8.397927284240723 7.43343448638916 8.394827842712402 7.436328887939453 8.391785621643066 C 7.437491893768311 8.390563011169434 7.438704013824463 8.389289855957031 7.43986701965332 8.388068199157715 C 7.442761898040771 8.385025978088379 7.445756912231445 8.381880760192871 7.448652744293213 8.378841400146484 C 7.449234962463379 8.378230094909668 7.450364589691162 8.377044677734375 7.45094633102417 8.376434326171875 C 7.453495502471924 8.373759269714355 7.456024646759033 8.37110710144043 7.458574771881104 8.368432998657227 C 7.45915699005127 8.367822647094727 7.460980415344238 8.365910530090332 7.461562633514404 8.365300178527832 C 7.464577198028564 8.362140655517578 7.467389106750488 8.359194755554199 7.470404624938965 8.356036186218262 C 7.470987319946289 8.355425834655762 7.472986698150635 8.353333473205566 7.473569393157959 8.352723121643066 C 7.475889682769775 8.35029411315918 7.478137016296387 8.347942352294922 7.48045825958252 8.345514297485352 C 7.481623649597168 8.344294548034668 7.482239723205566 8.343649864196777 7.483405590057373 8.34243106842041 C 7.486307621002197 8.339396476745605 7.489299297332764 8.336269378662109 7.492202758789063 8.333235740661621 C 7.493369102478027 8.33201789855957 7.494298934936523 8.331046104431152 7.495465278625488 8.329828262329102 C 7.498369216918945 8.32679557800293 7.501234531402588 8.323803901672363 7.50413990020752 8.320772171020508 C 7.50472354888916 8.320163726806641 7.505990028381348 8.318841934204102 7.506573677062988 8.318233489990234 C 7.509130954742432 8.315566062927246 7.511898994445801 8.312679290771484 7.514457225799561 8.310012817382813 C 7.515041351318359 8.309404373168945 7.516697406768799 8.30767822265625 7.517281055450439 8.307069778442383 C 7.520304679870605 8.303918838500977 7.523260593414307 8.300841331481934 7.526285648345947 8.29769229888916 C 7.527454376220703 8.296475410461426 7.528052806854248 8.295852661132813 7.529222011566162 8.294635772705078 C 7.531665802001953 8.292093276977539 7.53443717956543 8.289210319519043 7.536881923675537 8.286667823791504 C 7.538051128387451 8.285451889038086 7.537858009338379 8.285652160644531 7.539027690887451 8.284436225891113 C 7.542055130004883 8.281289100646973 7.545307159423828 8.277910232543945 7.548335552215576 8.274765014648438 C 7.549505710601807 8.273550033569336 7.549980640411377 8.273056983947754 7.551151275634766 8.271842002868652 C 7.55418062210083 8.268696784973145 7.557242870330811 8.265518188476563 7.56027364730835 8.262374877929688 C 7.560859203338623 8.261767387390137 7.561226844787598 8.261385917663574 7.561812400817871 8.260778427124023 C 7.564726829528809 8.257756233215332 7.567584037780762 8.254794120788574 7.570499897003174 8.251773834228516 C 7.571085929870605 8.251166343688965 7.572600364685059 8.249597549438477 7.573185920715332 8.248991012573242 C 7.576335906982422 8.245728492736816 7.579398155212402 8.242557525634766 7.582549571990967 8.239296913146973 C 7.58372163772583 8.238083839416504 7.583504199981689 8.238308906555176 7.584676742553711 8.237095832824707 C 7.587478160858154 8.234197616577148 7.590219497680664 8.231363296508789 7.593022346496582 8.228466033935547 C 7.594195365905762 8.227252960205078 7.593839168548584 8.227621078491211 7.595012187957764 8.226408958435059 C 7.598165512084961 8.223150253295898 7.601412773132324 8.219796180725098 7.604568004608154 8.21653938293457 C 7.605154514312744 8.215932846069336 7.606416702270508 8.214631080627441 7.607003688812256 8.214025497436523 C 7.610042095184326 8.210888862609863 7.61302661895752 8.207810401916504 7.616066455841064 8.204675674438477 C 7.616066455841064 8.204675674438477 7.61748743057251 8.20320987701416 7.61748743057251 8.20320987701416 C 7.620644569396973 8.199954986572266 7.623758792877197 8.196746826171875 7.626917362213135 8.193492889404297 C 7.627505302429199 8.192888259887695 7.628490924835205 8.191872596740723 7.629078388214111 8.191267967224121 C 7.632354736328125 8.187893867492676 7.635534286499023 8.184621810913086 7.638812065124512 8.181249618530273 C 7.639400005340576 8.180644989013672 7.639985084533691 8.180044174194336 7.640573024749756 8.179439544677734 C 7.643499851226807 8.17642879486084 7.646450042724609 8.173396110534668 7.649378299713135 8.170387268066406 C 7.649966716766357 8.169782638549805 7.65054178237915 8.169192314147949 7.651130199432373 8.168587684631348 C 7.654293060302734 8.165338516235352 7.657608032226563 8.161934852600098 7.660772800445557 8.158686637878418 C 7.661361217498779 8.158082962036133 7.66265869140625 8.15675163269043 7.663247108459473 8.156147956848145 C 7.666529655456543 8.152780532836914 7.669625282287598 8.149604797363281 7.672909259796143 8.146239280700684 C 7.672909259796143 8.146239280700684 7.673117637634277 8.146025657653809 7.673117637634277 8.146025657653809 C 7.676636219024658 8.142419815063477 7.67994499206543 8.139030456542969 7.683465480804443 8.13542652130127 C 7.684054851531982 8.134822845458984 7.684548854827881 8.134316444396973 7.685138702392578 8.133713722229004 C 7.688541889190674 8.130228996276855 7.691994190216064 8.126697540283203 7.695399761199951 8.123214721679688 C 7.695989608764648 8.122611999511719 7.695601463317871 8.123008728027344 7.696191310882568 8.122406005859375 C 7.699361801147461 8.11916446685791 7.702690124511719 8.115763664245605 7.705862522125244 8.112523078918457 C 7.706452369689941 8.111920356750488 7.706814765930176 8.111550331115723 7.707405090332031 8.110947608947754 C 7.710812568664551 8.107467651367188 7.714190006256104 8.104020118713379 7.717599391937256 8.100542068481445 C 7.718189716339111 8.099939346313477 7.71842622756958 8.099699020385742 7.719017028808594 8.099096298217773 C 7.722544193267822 8.095499038696289 7.725821495056152 8.092157363891602 7.729350566864014 8.088561058044434 C 7.729350566864014 8.088561058044434 7.729491710662842 8.088418006896973 7.729491710662842 8.088418006896973 C 7.733021259307861 8.084821701049805 7.736606121063232 8.081171989440918 7.740137100219727 8.077577590942383 C 7.740137100219727 8.077577590942383 7.741382598876953 8.076311111450195 7.741382598876953 8.076311111450195 C 7.744914054870605 8.07271671295166 7.7484130859375 8.069157600402832 7.751946449279785 8.065566062927246 C 7.752538204193115 8.06496524810791 7.751789093017578 8.065726280212402 7.75238037109375 8.065125465393066 C 7.755796432495117 8.061653137207031 7.759407997131348 8.057985305786133 7.762825489044189 8.05451488494873 C 7.76341724395752 8.053914070129395 7.763086795806885 8.05424976348877 7.763678550720215 8.053648948669434 C 7.767214298248291 8.05005931854248 7.770745277404785 8.046476364135742 7.774282932281494 8.042888641357422 C 7.774875164031982 8.042288780212402 7.774762153625488 8.042403221130371 7.775354385375977 8.041802406311035 C 7.782430171966553 8.034627914428711 7.78968620300293 8.027278900146484 7.796770095825195 8.020112037658691 C 7.796770095825195 8.020112037658691 7.797982215881348 8.018886566162109 7.797982215881348 8.018886566162109 C 7.805066108703613 8.011720657348633 7.812375068664551 8.004335403442383 7.819467544555664 7.997177124023438 C 7.820061206817627 7.996577739715576 7.819788932800293 7.996852397918701 7.820382595062256 7.99625301361084 C 7.823928833007813 7.992674350738525 7.827520847320557 7.989051342010498 7.831068992614746 7.985474586486816 C 7.831068992614746 7.985474586486816 7.831940650939941 7.984595775604248 7.831940650939941 7.984595775604248 C 7.835371017456055 7.981138229370117 7.839032173156738 7.977449893951416 7.842463970184326 7.973994255065918 C 7.842463970184326 7.973994255065918 7.842841148376465 7.97361421585083 7.842841148376465 7.97361421585083 C 7.84650993347168 7.969920635223389 7.850027561187744 7.966381072998047 7.85369873046875 7.962689399719238 C 7.85369873046875 7.962689399719238 7.854579448699951 7.961803436279297 7.854579448699951 7.961803436279297 C 7.861921787261963 7.95442008972168 7.869200706481934 7.947109222412109 7.876551151275635 7.939733982086182 C 7.87714672088623 7.939136505126953 7.876456260681152 7.939829349517822 7.877051830291748 7.939231872558594 C 7.880727291107178 7.935544490814209 7.884541034698486 7.93172025680542 7.888218879699707 7.928034782409668 C 7.888218879699707 7.928034782409668 7.888265132904053 7.92798900604248 7.888265132904053 7.92798900604248 C 7.903331279754639 7.912891387939453 7.918529987335205 7.897697448730469 7.933631420135498 7.882635593414307 C 7.933631420135498 7.882635593414307 7.934005260467529 7.882262706756592 7.934005260467529 7.882262706756592 C 8.877706527709961 6.941085338592529 9.890518188476563 6.069491386413574 10.96444988250732 5.275469779968262 C 13.18161010742188 3.636199951171875 15.65859031677246 2.328249931335449 18.32226943969727 1.424749970436096 L 19.28593063354492 4.265759944915771 C 16.94470977783203 5.059889793395996 14.74503040313721 6.21120023727417 12.74798011779785 7.687729835510254 C 10.77239036560059 9.14840030670166 9.037010192871094 10.89568996429443 7.59004020690918 12.88105964660645 C 4.587210178375244 17.00123023986816 3 21.88348007202148 3 27 C 3 30.24130058288574 3.634140014648438 33.38405990600586 4.884809970855713 36.34096145629883 C 6.09345006942749 39.19850921630859 7.824349880218506 41.76548004150391 10.02943992614746 43.97055816650391 C 12.23451995849609 46.17565155029297 14.80148983001709 47.90655136108398 17.6590404510498 49.11518859863281 C 20.61594009399414 50.36585998535156 23.75869941711426 51 27 51 L 27 54 C 27 54 27 54 27 54 Z M 27 54 L 27 51 C 29.69050025939941 51 32.33050918579102 50.5588493347168 34.84669876098633 49.68881988525391 C 37.27917861938477 48.84772109985352 39.55255126953125 47.62253189086914 41.60366058349609 46.04727935791016 L 43.43095016479492 48.42655944824219 C 42.98661041259766 48.76781463623047 42.53152847290039 49.09543991088867 42.06596374511719 49.4090576171875 C 42.06526184082031 49.40953063964844 42.06574630737305 49.40920639038086 42.06504058837891 49.4096794128418 C 42.06300354003906 49.41105270385742 42.06084060668945 49.41250991821289 42.05879974365234 49.41388320922852 C 42.05879974365234 49.41388320922852 42.05780029296875 49.41455459594727 42.05780029296875 49.41455459594727 C 42.05561828613281 49.41602325439453 42.05375289916992 49.41727828979492 42.05156707763672 49.41875076293945 C 42.05156707763672 49.41875076293945 42.05086517333984 49.41921997070313 42.05086517333984 49.41921997070313 C 42.04198455810547 49.42519760131836 42.03313446044922 49.4311408996582 42.02424621582031 49.43710327148438 C 42.02354431152344 49.43757629394531 42.0235595703125 49.43756484985352 42.02285766601563 49.43803405761719 C 42.02096557617188 49.43930816650391 42.01913070678711 49.44053649902344 42.01723480224609 49.44180679321289 C 42.01653289794922 49.44227981567383 42.01594924926758 49.44266891479492 42.01524353027344 49.44314193725586 C 42.01349639892578 49.44431304931641 42.01166915893555 49.44553756713867 42.00991821289063 49.44670867919922 C 42.00921630859375 49.44718170166016 42.00834655761719 49.44776153564453 42.00764465332031 49.44823455810547 C 42.00137329101563 49.45243453979492 41.99501800537109 49.45668792724609 41.98874282836914 49.46088409423828 C 41.98874282836914 49.46088409423828 41.98833465576172 49.46115875244141 41.98833465576172 49.46115875244141 C 41.98643493652344 49.46242523193359 41.98469543457031 49.46358871459961 41.9827995300293 49.46485900878906 C 41.98209381103516 49.46532821655273 41.98115539550781 49.46595764160156 41.98044967651367 49.46642684936523 C 41.97869873046875 49.46759796142578 41.97708129882813 49.46867752075195 41.9753303527832 49.46984481811523 C 41.97462844848633 49.47031784057617 41.97367858886719 49.47095108032227 41.97297668457031 49.47142028808594 C 41.97122192382813 49.47258758544922 41.9694938659668 49.4737434387207 41.96773910522461 49.47491455078125 C 41.96703720092773 49.47538375854492 41.96680068969727 49.47554016113281 41.96609878540039 49.47600936889648 C 41.96259307861328 49.47834777832031 41.95892333984375 49.48079299926758 41.95541763305664 49.48313140869141 C 41.95326232910156 49.48457336425781 41.95130157470703 49.48587799072266 41.94913482666016 49.48731994628906 C 41.94712066650391 49.48867034912109 41.94336318969727 49.49116897583008 41.94133758544922 49.49250793457031 C 41.93861389160156 49.49431991577148 41.93640899658203 49.49578475952148 41.93369293212891 49.49759674072266 C 41.93082427978516 49.49950790405273 41.92885208129883 49.50081634521484 41.92597579956055 49.50272750854492 C 41.92456436157227 49.50366592407227 41.92322158813477 49.50455474853516 41.92181396484375 49.5054931640625 C 41.92005920410156 49.50666046142578 41.91824722290039 49.50786209106445 41.9164924621582 49.50902557373047 C 41.91437530517578 49.51043319702148 41.91315460205078 49.51124572753906 41.91103744506836 49.51264953613281 C 41.90845108032227 49.51436614990234 41.90559768676758 49.51626205444336 41.90301513671875 49.51797103881836 C 41.90058517456055 49.51959228515625 41.89748001098633 49.52164459228516 41.89504241943359 49.52325439453125 C 41.89245986938477 49.52497100830078 41.88963317871094 49.52684020996094 41.88705062866211 49.52854919433594 C 41.88602828979492 49.52922821044922 41.88510513305664 49.52983856201172 41.88408279418945 49.53051376342773 C 41.88196182250977 49.53191757202148 41.88024139404297 49.53305435180664 41.87812423706055 49.53445816040039 C 41.87739181518555 49.53494262695313 41.87646865844727 49.53555297851563 41.87573623657227 49.53603744506836 C 41.87290954589844 49.53790664672852 41.87108993530273 49.53911209106445 41.86826324462891 49.54097747802734 C 41.86626815795898 49.54230880737305 41.86260223388672 49.54471969604492 41.86060333251953 49.54603958129883 C 41.85816192626953 49.54764556884766 41.85472106933594 49.5499267578125 41.85227584838867 49.55153656005859 C 41.85139846801758 49.55211639404297 41.85083770751953 49.55248641967773 41.84996032714844 49.55306625366211 C 41.84713363647461 49.554931640625 41.84629821777344 49.55548095703125 41.84347152709961 49.55734634399414 C 41.84303283691406 49.55763626098633 41.84258270263672 49.55792999267578 41.84214401245117 49.55821990966797 C 41.83648681640625 49.56194686889648 41.83174133300781 49.5650749206543 41.82608413696289 49.56880187988281 C 41.82535171508789 49.56928253173828 41.82453918457031 49.56981658935547 41.82380294799805 49.5703010559082 C 41.82168197631836 49.57169723510742 41.82003402709961 49.57278060913086 41.81790924072266 49.57417678833008 C 41.81589889526367 49.57550048828125 41.81175994873047 49.57821655273438 41.80975723266602 49.57953643798828 C 41.80902481079102 49.58002090454102 41.80835723876953 49.5804557800293 41.80762481689453 49.58094024658203 C 41.80479431152344 49.58280181884766 41.80307769775391 49.58392715454102 41.80024719238281 49.58578491210938 C 41.80024719238281 49.58578491210938 41.79994583129883 49.58598327636719 41.79994583129883 49.58598327636719 C 41.79145431518555 49.59156036376953 41.78345489501953 49.59680557250977 41.77495574951172 49.60237121582031 C 41.77466201782227 49.60256576538086 41.7742919921875 49.60280609130859 41.77399826049805 49.60300064086914 C 41.77116394042969 49.60485458374023 41.76918411254883 49.60615158081055 41.76634979248047 49.60800552368164 C 41.76620483398438 49.60810470581055 41.76594161987305 49.6082763671875 41.76579284667969 49.60837173461914 C 41.75728988647461 49.61393737792969 41.7490348815918 49.61933135986328 41.74052429199219 49.6248893737793 C 41.74052429199219 49.6248893737793 41.74041748046875 49.62495803833008 41.74041748046875 49.62495803833008 C 41.73474502563477 49.628662109375 41.72924041748047 49.63225173950195 41.72356414794922 49.63595199584961 C 41.72356414794922 49.63595199584961 41.72340393066406 49.63605499267578 41.72340393066406 49.63605499267578 C 41.71205139160156 49.64345550537109 41.70090484619141 49.65071105957031 41.68953704833984 49.6580924987793 C 41.68953704833984 49.6580924987793 41.68925094604492 49.65827941894531 41.68925094604492 49.65827941894531 C 40.40502166748047 50.49255752563477 39.04557800292969 51.22052383422852 37.62306594848633 51.82991409301758 C 37.62306594848633 51.82991409301758 37.62303924560547 51.82992553710938 37.62303924560547 51.82992553710938 C 37.61045074462891 51.83531951904297 37.59844970703125 51.84045028686523 37.58585357666016 51.8458251953125 C 37.58552551269531 51.84596252441406 37.58491897583008 51.84622192382813 37.58459091186523 51.84635925292969 C 37.58144378662109 51.84770584106445 37.57950210571289 51.84852981567383 37.57635498046875 51.84987258911133 C 37.57602691650391 51.85001373291016 37.57577896118164 51.85012054443359 37.5754508972168 51.85025787353516 C 37.56600189208984 51.85428619384766 37.55721282958984 51.85802459716797 37.54775619506836 51.86204147338867 C 37.54726791381836 51.86224746704102 37.54713439941406 51.8623046875 37.5466423034668 51.86251449584961 C 37.54349136352539 51.86385345458984 37.54217529296875 51.86441040039063 37.53902435302734 51.86574935913086 C 37.5382080078125 51.86609649658203 37.53765487670898 51.86632919311523 37.53683853149414 51.86667633056641 C 37.53349304199219 51.86809539794922 37.53090286254883 51.86920166015625 37.52755737304688 51.87061309814453 C 37.5244026184082 51.8719482421875 37.52326202392578 51.87243270874023 37.52010726928711 51.8737678527832 C 37.51977920532227 51.87390518188477 37.51919174194336 51.8741569519043 37.51886367797852 51.87429428100586 C 37.51571273803711 51.87562942504883 37.51309585571289 51.87673568725586 37.50994110107422 51.87807083129883 C 37.507080078125 51.87925338745117 37.50377655029297 51.88067245483398 37.50092315673828 51.88188171386719 C 37.4985237121582 51.88290786743164 37.49436950683594 51.88465881347656 37.49197006225586 51.88566207885742 C 37.48878860473633 51.88702392578125 37.48571395874023 51.88830184936523 37.48252868652344 51.8896484375 C 37.47933959960938 51.89098358154297 37.47628402709961 51.89228057861328 37.47309875488281 51.89361953735352 C 37.47260665893555 51.89382934570313 37.47195816040039 51.89410018920898 37.47146606445313 51.89430999755859 C 37.46831130981445 51.89563751220703 37.4656867980957 51.8967399597168 37.46253204345703 51.8980712890625 C 37.46203994750977 51.89827728271484 37.46172714233398 51.89840698242188 37.46123504638672 51.89861297607422 C 37.45808029174805 51.89994430541992 37.45675277709961 51.9005012512207 37.45359420776367 51.90182876586914 C 37.45119476318359 51.90283203125 37.44725036621094 51.90449142456055 37.44485473632813 51.90549850463867 C 37.44228744506836 51.90657424926758 37.43848037719727 51.90816879272461 37.43592071533203 51.90924835205078 C 37.43477249145508 51.90972900390625 37.43400573730469 51.91005325317383 37.43285751342773 51.9105339050293 C 37.42654037475586 51.91318130493164 37.42153167724609 51.91527938842773 37.41521072387695 51.91792678833008 C 37.41471862792969 51.91813278198242 37.41420745849609 51.9183464050293 37.41371536254883 51.91855239868164 C 37.41055679321289 51.91987228393555 37.40940475463867 51.92035293579102 37.40624237060547 51.92167663574219 C 37.40384292602539 51.92269134521484 37.40002059936523 51.92428207397461 37.39762115478516 51.92527770996094 C 37.3948860168457 51.92641830444336 37.39079284667969 51.92812728881836 37.38806915283203 51.92926788330078 C 37.38724899291992 51.92960739135742 37.38655853271484 51.92989730834961 37.38573837280273 51.93023681640625 C 37.38257598876953 51.93155670166016 37.38103866577148 51.93219757080078 37.37787628173828 51.93351745605469 C 37.37754821777344 51.93365097045898 37.37714385986328 51.93381881713867 37.37681579589844 51.93395614624023 C 37.37365341186523 51.93527603149414 37.37136077880859 51.93622970581055 37.36819458007813 51.93754577636719 C 37.36562728881836 51.93861389160156 37.36188888549805 51.94017028808594 37.35932922363281 51.94123458862305 C 37.3564338684082 51.94244384765625 37.35357284545898 51.94363021850586 37.35067367553711 51.94483184814453 C 37.3477783203125 51.94603729248047 37.3448486328125 51.9472541809082 37.34195709228516 51.94845199584961 C 37.33827209472656 51.94998168945313 37.33555603027344 51.95110702514648 37.33187484741211 51.95263290405273 C 37.32801055908203 51.95422744750977 37.32498931884766 51.95547866821289 37.32114028930664 51.95708084106445 C 37.31808471679688 51.95835113525391 37.31544876098633 51.95943832397461 37.31238555908203 51.9607048034668 C 37.30932235717773 51.96197128295898 37.30680465698242 51.9630126953125 37.30373764038086 51.96427917480469 C 37.30067825317383 51.96554565429688 37.29803085327148 51.96662902832031 37.29497528076172 51.96789932250977 C 37.29333114624023 51.96857452392578 37.29177474975586 51.96921920776367 37.29013442993164 51.96989440917969 C 37.29013442993164 51.96989440917969 37.28903579711914 51.9703483581543 37.28903579711914 51.9703483581543 C 37.28197479248047 51.97325897216797 37.27514266967773 51.97607421875 37.2680778503418 51.97898101806641 C 37.26532363891602 51.98011779785156 37.26237487792969 51.98132705688477 37.25960922241211 51.98246765136719 C 37.2568473815918 51.98358917236328 37.25383758544922 51.98483657836914 37.25107574462891 51.9859733581543 C 37.25028228759766 51.98629760742188 37.25006484985352 51.98638916015625 37.24927139282227 51.98671340942383 C 37.24204254150391 51.98968124389648 37.23466110229492 51.99271011352539 37.2274284362793 51.99567031860352 C 37.2274284362793 51.99567031860352 37.22684860229492 51.99591064453125 37.22684860229492 51.99591064453125 C 37.22391891479492 51.99710464477539 37.22113800048828 51.99824905395508 37.21820831298828 51.99944686889648 C 37.21607208251953 52.00032043457031 37.21384429931641 52.0012321472168 37.21170806884766 52.00210571289063 C 37.21170806884766 52.00210571289063 37.21045684814453 52.00261688232422 37.21045684814453 52.00261688232422 C 37.20798873901367 52.00362396240234 37.20587539672852 52.00448989868164 37.20340728759766 52.00549697875977 C 37.20340728759766 52.00549697875977 37.20262145996094 52.00581741333008 37.20262145996094 52.00581741333008 C 37.19488906860352 52.00897598266602 37.18732070922852 52.01206207275391 37.17958450317383 52.01521301269531 C 37.17958450317383 52.01521301269531 37.17953491210938 52.01523590087891 37.17953491210938 52.01523590087891 C 37.17644119262695 52.01649856567383 37.17411041259766 52.01744079589844 37.1710090637207 52.01870727539063 C 37.16791152954102 52.01996994018555 37.16615295410156 52.02069091796875 37.16305160522461 52.02194213867188 C 37.16058349609375 52.02294540405273 37.15833282470703 52.02386093139648 37.15586471557617 52.02486419677734 C 37.15586471557617 52.02486419677734 37.15575790405273 52.02490615844727 37.15575790405273 52.02490615844727 C 37.14538192749023 52.02912139892578 37.13513946533203 52.03327560424805 37.12475967407227 52.0374755859375 C 37.12475967407227 52.0374755859375 37.12378311157227 52.03787231445313 37.12378311157227 52.03787231445313 C 37.12068939208984 52.03913116455078 37.11891937255859 52.03984832763672 37.11581420898438 52.04109573364258 C 37.11334228515625 52.04209518432617 37.11095809936523 52.04306030273438 37.10848617553711 52.04405975341797 C 37.10848617553711 52.04405975341797 37.10799026489258 52.04425811767578 37.10799026489258 52.04425811767578 C 37.09777450561523 52.04838562011719 37.08754348754883 52.05251312255859 37.07732009887695 52.0566291809082 C 37.07732009887695 52.0566291809082 37.0762825012207 52.05704498291016 37.0762825012207 52.05704498291016 C 36.66481399536133 52.22266387939453 36.24829483032227 52.37845611572266 35.82707977294922 52.52410125732422 C 33.76337814331055 53.23767852783203 31.5862865447998 53.70802307128906 29.32990074157715 53.90087127685547 C 29.32990074157715 53.90087127685547 29.32965660095215 53.90089416503906 29.32965660095215 53.90089416503906 C 29.31784248352051 53.90190505981445 29.30619049072266 53.90289306640625 29.29437255859375 53.90388488769531 C 29.29437255859375 53.90388488769531 29.29435729980469 53.90388870239258 29.29435729980469 53.90388870239258 C 29.29158782958984 53.90412139892578 29.28878593444824 53.90435409545898 29.28601455688477 53.90458679199219 C 29.28601455688477 53.90458679199219 29.28508949279785 53.90466690063477 29.28508949279785 53.90466690063477 C 29.2816162109375 53.90495300292969 29.2795581817627 53.90513610839844 29.27607917785645 53.90541839599609 C 29.26167488098145 53.90662002563477 29.24715805053711 53.90782165527344 29.23274612426758 53.90900039672852 C 29.23274612426758 53.90900039672852 29.23191261291504 53.9090690612793 29.23191261291504 53.9090690612793 C 29.22825050354004 53.90937423706055 29.22652626037598 53.90950775146484 29.22286224365234 53.90980911254883 C 29.21121978759766 53.91075897216797 29.19980621337891 53.91167831420898 29.18815994262695 53.91261291503906 C 29.18815994262695 53.91261291503906 29.18785095214844 53.91263961791992 29.18785095214844 53.91263961791992 C 29.18489265441895 53.91287612915039 29.18222999572754 53.91308975219727 29.17927360534668 53.91332626342773 C 29.17927360534668 53.91332626342773 29.17886734008789 53.91335678100586 29.17886734008789 53.91335678100586 C 29.1759090423584 53.91359329223633 29.17318725585938 53.91381072998047 29.17022895812988 53.91404724121094 C 29.17022895812988 53.91404724121094 29.17011070251465 53.91405487060547 29.17011070251465 53.91405487060547 C 29.15756797790527 53.9150505065918 29.14690971374512 53.91582107543945 29.13438987731934 53.91687393188477 C 29.13179969787598 53.91707611083984 29.12887954711914 53.91730499267578 29.12629127502441 53.91750335693359 C 29.12629127502441 53.91750335693359 29.12529945373535 53.91758346557617 29.12529945373535 53.91758346557617 C 29.12252426147461 53.91779708862305 29.11979484558105 53.91801071166992 29.11701965332031 53.9182243347168 C 29.11701965332031 53.9182243347168 29.11668968200684 53.91825103759766 29.11668968200684 53.91825103759766 C 29.1041431427002 53.91922378540039 29.09370994567871 53.92002105712891 29.08117294311523 53.92098236083984 C 29.07821083068848 53.92120742797852 29.07553100585938 53.92141342163086 29.07257080078125 53.92163467407227 C 29.07257080078125 53.92163467407227 29.07246017456055 53.92164611816406 29.07246017456055 53.92164611816406 C 29.06949996948242 53.92187118530273 29.06662178039551 53.92208862304688 29.06365966796875 53.92230987548828 C 29.06365966796875 53.92230987548828 29.06357383728027 53.92231750488281 29.06357383728027 53.92231750488281 C 29.05120468139648 53.92325210571289 29.03974533081055 53.92414855957031 29.02736663818359 53.92502975463867 C 29.02388191223145 53.92528915405273 29.02167320251465 53.92546081542969 29.01819038391113 53.92570877075195 C 29.01489067077637 53.92594909667969 29.01233863830566 53.92613983154297 29.00904083251953 53.92638397216797 C 28.99703598022461 53.92726898193359 28.98586845397949 53.92815399169922 28.97385406494141 53.92894744873047 C 28.97055053710938 53.9291877746582 28.96817588806152 53.92935562133789 28.96487998962402 53.92959594726563 C 28.9622859954834 53.92978286743164 28.95966148376465 53.92996978759766 28.95706748962402 53.93015670776367 C 28.95706748962402 53.93015670776367 28.9565315246582 53.93019485473633 28.9565315246582 53.93019485473633 C 28.94730186462402 53.93085861206055 28.93922424316406 53.93146133422852 28.92997550964355 53.93208312988281 C 28.92667388916016 53.93231582641602 28.92365264892578 53.93252182006836 28.92035102844238 53.93276214599609 C 28.91704559326172 53.93298721313477 28.91498184204102 53.93313598632813 28.91167068481445 53.93336868286133 C 28.89946937561035 53.93422698974609 28.88869285583496 53.93497467041016 28.87650489807129 53.93580627441406 C 28.87338256835938 53.93601989746094 28.86979675292969 53.93627548217773 28.8666820526123 53.93648147583008 C 28.86337661743164 53.93670654296875 28.86110305786133 53.93686294555664 28.85779571533203 53.93708419799805 C 28.84577178955078 53.93790435791016 28.83515739440918 53.93865585327148 28.82312393188477 53.93941879272461 C 28.82071113586426 53.93957901000977 28.81806945800781 53.93975448608398 28.8156566619873 53.93991470336914 C 28.8156566619873 53.93991470336914 28.81338500976563 53.94006729125977 28.81338500976563 53.94006729125977 C 28.8100757598877 53.94028472900391 28.80718612670898 53.94046401977539 28.80388259887695 53.94069671630859 C 28.80146980285645 53.94085311889648 28.79924201965332 53.94100189208984 28.79682922363281 53.94115829467773 C 28.79682922363281 53.94115829467773 28.7961597442627 53.94120407104492 28.7961597442627 53.94120407104492 C 28.78709983825684 53.94180297851563 28.77831840515137 53.9423942565918 28.76923179626465 53.94295883178711 C 28.76521301269531 53.94322204589844 28.7634220123291 53.94333648681641 28.75940132141113 53.9435920715332 C 28.75627517700195 53.94379806518555 28.75368118286133 53.94396209716797 28.75055503845215 53.94416046142578 C 28.74204635620117 53.94470977783203 28.73353004455566 53.94522476196289 28.72502326965332 53.94578170776367 C 28.72208595275879 53.94597244262695 28.71843528747559 53.94618988037109 28.71550178527832 53.94638061523438 C 28.71237373352051 53.94657897949219 28.70899963378906 53.94677734375 28.70587921142578 53.94698333740234 C 28.70275497436523 53.94717407226563 28.69988822937012 53.94735717773438 28.6967601776123 53.94754791259766 C 28.6882495880127 53.94807815551758 28.68006324768066 53.94858932495117 28.67155075073242 53.94910049438477 C 28.66842460632324 53.94928741455078 28.66499519348145 53.94950485229492 28.66186714172363 53.94969177246094 C 28.6589241027832 53.94986343383789 28.65518760681152 53.95009231567383 28.65225219726563 53.95027160644531 C 28.65002250671387 53.95040893554688 28.64771270751953 53.95054626464844 28.64548301696777 53.95067977905273 C 28.64548301696777 53.95067977905273 28.64401817321777 53.95076751708984 28.64401817321777 53.95076751708984 C 28.63531494140625 53.95129013061523 28.62653923034668 53.95180130004883 28.61784553527832 53.95232772827148 C 28.61471748352051 53.9525146484375 28.61151123046875 53.95269775390625 28.60838508605957 53.95288467407227 C 28.60525703430176 53.95306777954102 28.60193061828613 53.95327758789063 28.59880065917969 53.95344543457031 C 28.59567070007324 53.95363235473633 28.59286499023438 53.95379638671875 28.58974075317383 53.95397567749023 C 28.58103179931641 53.95448303222656 28.57310485839844 53.95493698120117 28.56438064575195 53.95543670654297 C 28.56125068664551 53.95561599731445 28.5577220916748 53.95580291748047 28.55460166931152 53.95599365234375 C 28.55147171020508 53.95616912841797 28.54780769348145 53.95637512207031 28.54467391967773 53.9565544128418 C 28.54173278808594 53.95671844482422 28.53920364379883 53.95686721801758 28.53625679016113 53.95702743530273 C 28.52791595458984 53.95749282836914 28.51862335205078 53.9580192565918 28.51029777526855 53.95846939086914 C 28.50645065307617 53.95868682861328 28.5045280456543 53.95878601074219 28.50068855285645 53.95899963378906 C 28.49773979187012 53.95915603637695 28.49363899230957 53.95938110351563 28.49069404602051 53.95954513549805 C 28.48793601989746 53.95969390869141 28.48460388183594 53.95988464355469 28.48184776306152 53.96002578735352 C 28.47737884521484 53.96026611328125 28.4727783203125 53.96051406860352 28.46830940246582 53.96075439453125 C 28.46830940246582 53.96075439453125 28.4664421081543 53.96085357666016 28.4664421081543 53.96085357666016 C 28.46331405639648 53.96102142333984 28.4598274230957 53.96121215820313 28.45668601989746 53.96137237548828 C 28.45284080505371 53.96157836914063 28.45066833496094 53.96170043945313 28.44682502746582 53.96189498901367 C 28.44387817382813 53.96205902099609 28.43996810913086 53.96224975585938 28.43701934814453 53.9624137878418 C 28.43497085571289 53.96252059936523 28.4330005645752 53.96262359619141 28.43095207214355 53.96273040771484 C 28.43095207214355 53.96273040771484 28.42962265014648 53.96279907226563 28.42962265014648 53.96279907226563 C 28.42440795898438 53.96306991577148 28.41956520080566 53.96332168579102 28.41435050964355 53.96359252929688 C 28.41435050964355 53.96359252929688 28.41283416748047 53.96366882324219 28.41283416748047 53.96366882324219 C 28.40969848632813 53.96383666992188 28.40599822998047 53.96402359008789 28.40286254882813 53.96418380737305 C 28.39991188049316 53.96432495117188 28.3964900970459 53.96450424194336 28.39353942871094 53.96465682983398 C 28.39040565490723 53.96482086181641 28.38729667663574 53.9649772644043 28.38415908813477 53.96513366699219 C 28.38192367553711 53.96524429321289 28.37948226928711 53.96537017822266 28.37724685668945 53.96548080444336 C 28.37724685668945 53.96548080444336 28.37589263916016 53.96554946899414 28.37589263916016 53.96554946899414 C 28.37070846557617 53.96580505371094 28.3637752532959 53.96615219116211 28.35858726501465 53.96641159057617 C 28.35492515563965 53.96659088134766 28.35253715515137 53.96671676635742 28.34887504577637 53.96689224243164 C 28.34521293640137 53.96707153320313 28.34264183044434 53.96719741821289 28.33897972106934 53.96737670898438 C 28.33621788024902 53.9675178527832 28.3315258026123 53.96774673461914 28.32875633239746 53.96787261962891 C 28.3234806060791 53.96814346313477 28.31977272033691 53.96831512451172 28.31449699401855 53.96856307983398 C 28.31192207336426 53.96868896484375 28.30755424499512 53.96890258789063 28.30497169494629 53.96901702880859 C 28.30131149291992 53.96918869018555 28.2985954284668 53.96931457519531 28.2949275970459 53.9694938659668 C 28.29126358032227 53.96966552734375 28.28888702392578 53.96977996826172 28.28521919250488 53.96994781494141 C 28.2824535369873 53.97007751464844 28.27832984924316 53.97027969360352 28.27556037902832 53.97040176391602 C 28.26794624328613 53.97075271606445 28.25855445861816 53.97118377685547 28.25091743469238 53.97153472900391 C 28.24743461608887 53.9716911315918 28.24440765380859 53.97183227539063 28.24092864990234 53.97198867797852 C 28.23744964599609 53.97214508056641 28.23456001281738 53.97227478027344 28.23107719421387 53.97243118286133 C 28.2284984588623 53.97254943847656 28.22414207458496 53.97272872924805 28.22156715393066 53.97285842895508 C 28.21674919128418 53.97307205200195 28.21176910400391 53.97328948974609 28.20695114135742 53.97350692749023 C 28.20347023010254 53.97365570068359 28.20032691955566 53.97379684448242 28.19684600830078 53.97394943237305 C 28.19355201721191 53.97409439086914 28.18990325927734 53.97425079345703 28.18660545349121 53.97439193725586 C 28.18349838256836 53.97453308105469 28.17978858947754 53.97468948364258 28.17668342590332 53.97481918334961 C 28.17249488830566 53.97500228881836 28.1694278717041 53.97513198852539 28.16523170471191 53.97530746459961 C 28.16070175170898 53.97552108764648 28.15706825256348 53.97565841674805 28.15253067016602 53.97584533691406 C 28.14960098266602 53.97596740722656 28.14549827575684 53.97613906860352 28.142578125 53.97626113891602 C 28.13946914672852 53.97638702392578 28.13586807250977 53.97653961181641 28.13275527954102 53.97666931152344 C 28.12945938110352 53.976806640625 28.12597274780273 53.97694778442383 28.12267684936523 53.97708129882813 C 28.11847496032715 53.97724533081055 28.11552429199219 53.97737884521484 28.11133003234863 53.97754287719727 C 28.10693740844727 53.97772216796875 28.10322570800781 53.97787857055664 28.09884262084961 53.97804641723633 C 28.09554481506348 53.97818374633789 28.09234046936035 53.97830963134766 28.08904266357422 53.97843551635742 C 28.08574867248535 53.97856903076172 28.08199691772461 53.97871780395508 28.07869911193848 53.97884368896484 C 28.07540130615234 53.97897720336914 28.07208633422852 53.97910690307617 28.06878471374512 53.97923278808594 C 28.06548309326172 53.9793586730957 28.06189155578613 53.97949600219727 28.05859756469727 53.97962951660156 C 28.05470657348633 53.97978210449219 28.04913139343262 53.98000335693359 28.04523468017578 53.98014068603516 C 28.04156112670898 53.98027420043945 28.03884887695313 53.98038101196289 28.03517913818359 53.98052215576172 C 28.03169059753418 53.98064804077148 28.02856636047363 53.98077011108398 28.02507781982422 53.98089981079102 C 28.0215950012207 53.98102569580078 28.01814460754395 53.98115921020508 28.01465797424316 53.98128509521484 C 28.01044845581055 53.9814453125 28.00640296936035 53.98159027099609 28.00220108032227 53.98174285888672 C 27.99799346923828 53.98190689086914 27.99493026733398 53.98200988769531 27.99072647094727 53.98215866088867 C 27.98761558532715 53.98227691650391 27.98396110534668 53.98239898681641 27.9808464050293 53.98251342773438 C 27.97772979736328 53.98263168334961 27.97371101379395 53.98276519775391 27.97060012817383 53.98287963867188 C 27.96729278564453 53.98299789428711 27.9639892578125 53.98311614990234 27.9606876373291 53.98322677612305 C 27.95577049255371 53.9833869934082 27.95183181762695 53.98353576660156 27.94691276550293 53.98370742797852 C 27.94379425048828 53.98381042480469 27.93991851806641 53.98394775390625 27.93680381774902 53.98405075073242 C 27.93349647521973 53.98416900634766 27.93022346496582 53.98427581787109 27.92692565917969 53.9843864440918 C 27.92362022399902 53.9844970703125 27.92026519775391 53.98461151123047 27.91696357727051 53.98472213745117 C 27.91347312927246 53.98483276367188 27.90950775146484 53.98496627807617 27.90602111816406 53.98508453369141 C 27.90127563476563 53.98523712158203 27.89742279052734 53.98537063598633 27.89269065856934 53.98551940917969 C 27.88903427124023 53.98563003540039 27.88607025146484 53.9857292175293 27.88242530822754 53.9858512878418 C 27.87949562072754 53.9859504699707 27.87548828125 53.98607635498047 27.87255859375 53.98616790771484 C 27.86943817138672 53.98626327514648 27.86502265930176 53.98640060424805 27.86190605163574 53.98650360107422 C 27.85807418823242 53.98661804199219 27.85498046875 53.98672103881836 27.85114860534668 53.98683929443359 C 27.84659767150879 53.98696899414063 27.84312629699707 53.98708724975586 27.83857345581055 53.98722457885742 C 27.83563995361328 53.9873161315918 27.83153343200684 53.9874382019043 27.82860374450684 53.98752593994141 C 27.82548713684082 53.98762512207031 27.82135963439941 53.98774719238281 27.81824493408203 53.98783874511719 C 27.81512641906738 53.9879264831543 27.8110294342041 53.98805236816406 27.80790710449219 53.98814392089844 C 27.80316734313965 53.98828506469727 27.80015754699707 53.98837280273438 27.79541969299316 53.98850631713867 C 27.79143524169922 53.98862838745117 27.78878402709961 53.98870086669922 27.78479194641113 53.98881149291992 C 27.78148651123047 53.98891830444336 27.77802848815918 53.98900985717773 27.77472305297852 53.98909759521484 C 27.77141761779785 53.98918914794922 27.76807403564453 53.98928833007813 27.76476669311523 53.98937606811523 C 27.76127624511719 53.98948287963867 27.75789070129395 53.98956680297852 27.75439262390137 53.98966217041016 C 27.75017929077148 53.98978424072266 27.74774551391602 53.98984909057617 27.7435359954834 53.98995971679688 C 27.73876571655273 53.99009323120117 27.73515510559082 53.99018859863281 27.73037719726563 53.99031066894531 C 27.72744560241699 53.99039077758789 27.72320365905762 53.99050140380859 27.72027015686035 53.99057769775391 C 27.71714401245117 53.99066162109375 27.71339797973633 53.99075698852539 27.71027755737305 53.99083709716797 C 27.70696640014648 53.99093246459961 27.70380210876465 53.99100875854492 27.70049476623535 53.9910888671875 C 27.69536972045898 53.99120712280273 27.69135093688965 53.9913215637207 27.68622970581055 53.99144744873047 C 27.68276405334473 53.99154663085938 27.67992973327637 53.99160766601563 27.67646408081055 53.99169158935547 C 27.67296981811523 53.99178314208984 27.66989135742188 53.99185562133789 27.6663875579834 53.99193572998047 C 27.66288757324219 53.99201965332031 27.65982818603516 53.99208831787109 27.65633201599121 53.99217987060547 C 27.65301704406738 53.99225234985352 27.64850234985352 53.99236679077148 27.64519500732422 53.9924430847168 C 27.64044761657715 53.99254989624023 27.63693237304688 53.99263381958008 27.63218688964844 53.99274444580078 C 27.62834548950195 53.99283599853516 27.6258602142334 53.99288940429688 27.62201499938965 53.99297714233398 C 27.61888885498047 53.99303436279297 27.61507034301758 53.99312591552734 27.6119441986084 53.99320220947266 C 27.60863304138184 53.99328231811523 27.60502052307129 53.99335861206055 27.60170936584473 53.99342727661133 C 27.59768486022949 53.99352645874023 27.59496116638184 53.99357986450195 27.59092903137207 53.99365997314453 C 27.586181640625 53.99377059936523 27.58232307434082 53.99384689331055 27.57757377624512 53.99394607543945 C 27.57358360290527 53.99403762817383 27.57180404663086 53.99406433105469 27.56780433654785 53.99414825439453 C 27.5646800994873 53.99421691894531 27.56067085266113 53.99429321289063 27.55754661560059 53.99435806274414 C 27.55460739135742 53.99441909790039 27.5504093170166 53.9944953918457 27.54747009277344 53.99456024169922 C 27.54325103759766 53.99464416503906 27.54090309143066 53.99468231201172 27.53668212890625 53.99477386474609 C 27.53192138671875 53.99485778808594 27.52861213684082 53.99492645263672 27.52386093139648 53.99501800537109 C 27.52054595947266 53.99508285522461 27.51695823669434 53.99514770507813 27.51364326477051 53.99521255493164 C 27.51070594787598 53.99526596069336 27.50627517700195 53.99534606933594 27.50333213806152 53.99540328979492 C 27.50020980834961 53.99546051025391 27.49624061584473 53.99553680419922 27.49311256408691 53.99558639526367 C 27.48906898498535 53.99564743041992 27.48612022399902 53.99571228027344 27.48209190368652 53.99578094482422 C 27.47751808166504 53.9958610534668 27.47379302978516 53.99592208862305 27.46923065185547 53.99600601196289 C 27.46647644042969 53.99604797363281 27.46203422546387 53.99612045288086 27.45928382873535 53.99617385864258 C 27.45615005493164 53.99621200561523 27.45204162597656 53.99629211425781 27.44891548156738 53.99634170532227 C 27.44578742980957 53.99639892578125 27.44182205200195 53.99645614624023 27.43869018554688 53.99650955200195 C 27.43374824523926 53.99657440185547 27.4313793182373 53.99662017822266 27.42643547058105 53.99670028686523 C 27.4222240447998 53.99673080444336 27.41923141479492 53.99680709838867 27.41504096984863 53.99687576293945 C 27.41191291809082 53.99692535400391 27.40811347961426 53.99697875976563 27.40498352050781 53.99702453613281 C 27.40185737609863 53.99707412719727 27.39794540405273 53.99712753295898 27.39481353759766 53.99717330932617 C 27.39149284362793 53.99721908569336 27.38765144348145 53.99728012084961 27.38433456420898 53.99731826782227 C 27.38048553466797 53.99737548828125 27.37601280212402 53.9974365234375 27.37215995788574 53.99748611450195 C 27.36758995056152 53.99755859375 27.36531257629395 53.99758148193359 27.36074256896973 53.99763870239258 C 27.35780334472656 53.99767684936523 27.35382461547852 53.99772644042969 27.35088157653809 53.99776458740234 C 27.34756088256836 53.997802734375 27.34376525878906 53.99785232543945 27.34044456481934 53.99789810180664 C 27.33731842041016 53.9979362487793 27.33283233642578 53.99798583984375 27.3297004699707 53.99802780151367 C 27.32511520385742 53.99808502197266 27.32101821899414 53.99813079833984 27.31644821166992 53.99818420410156 C 27.31224822998047 53.99823379516602 27.31062507629395 53.99825286865234 27.30643081665039 53.99829483032227 C 27.30348777770996 53.99832916259766 27.29889678955078 53.99837875366211 27.29595184326172 53.99840927124023 C 27.29301071166992 53.99845123291016 27.28844261169434 53.99848937988281 27.28549385070801 53.99851989746094 C 27.28183174133301 53.99856948852539 27.27828407287598 53.99859619140625 27.27462005615234 53.99863052368164 C 27.27004623413086 53.99869155883789 27.26670837402344 53.99871063232422 27.26213455200195 53.99875259399414 C 27.25865364074707 53.998779296875 27.25542449951172 53.99881744384766 27.25194549560547 53.99884796142578 C 27.24881744384766 53.99887847900391 27.24522018432617 53.9989128112793 27.2420825958252 53.99893569946289 C 27.23894882202148 53.99896240234375 27.23473167419434 53.99900054931641 27.23159790039063 53.99902725219727 C 27.22755813598633 53.99906158447266 27.22432327270508 53.99909210205078 27.22027969360352 53.99911880493164 C 27.21571350097656 53.99916839599609 27.21218299865723 53.99918365478516 27.20760536193848 53.99921798706055 C 27.20432472229004 53.99923324584961 27.20095252990723 53.99927139282227 27.19765853881836 53.99929046630859 C 27.19452476501465 53.99932098388672 27.19058799743652 53.99934387207031 27.18745040893555 53.99936294555664 C 27.18450736999512 53.99938201904297 27.18033599853516 53.99940490722656 27.1773853302002 53.99942779541016 C 27.17405891418457 53.99945068359375 27.16923141479492 53.99947738647461 27.16590881347656 53.9995002746582 C 27.1615161895752 53.9995231628418 27.15769004821777 53.99954986572266 27.15329742431641 53.99957275390625 C 27.14981842041016 53.99958801269531 27.14653015136719 53.99961090087891 27.1430492401123 53.99962997436523 C 27.14010810852051 53.99964141845703 27.13613319396973 53.99966430664063 27.13318252563477 53.99967956542969 C 27.13004112243652 53.99968719482422 27.12578010559082 53.99971389770508 27.12264251708984 53.99972534179688 C 27.11860466003418 53.99975967407227 27.11528015136719 53.99976348876953 27.11123275756836 53.99977493286133 C 27.10665702819824 53.99980926513672 27.10349082946777 53.99980545043945 27.09890937805176 53.99982070922852 C 27.09596061706543 53.99983978271484 27.09180450439453 53.99985122680664 27.08885192871094 53.99985504150391 C 27.08571434020996 53.99987411499023 27.08159828186035 53.9998779296875 27.07845687866211 53.9998893737793 C 27.0753173828125 53.99990081787109 27.07105255126953 53.99991226196289 27.06791114807129 53.99991607666016 C 27.06314086914063 53.99993896484375 27.06015396118164 53.99993515014648 27.05538368225098 53.99994277954102 C 27.05135726928711 53.99997711181641 27.04841232299805 53.99995422363281 27.04439544677734 53.99996566772461 C 27.04072189331055 53.99996948242188 27.03766632080078 53.99997329711914 27.03399467468262 53.99997711181641 C 27.03122520446777 53.99999237060547 27.02667427062988 53.9999885559082 27.02391242980957 53.9999885559082 C 27.02096366882324 53.99998474121094 27.01635551452637 53.99999618530273 27.01340293884277 53.99999618530273 C 27.00863075256348 54.00000381469727 27.00477409362793 54 27 54 Z" stroke="none" fill="#41d6c1"/>
      </g>
    </g>
    <g id="Group_112" data-name="Group 112" transform="translate(33.294 -23.708)">
      <g id="Ellipse_7" data-name="Ellipse 7" transform="translate(335.706 542.708)" fill="#ff5865" stroke="#fff" stroke-width="1">
        <circle cx="13.5" cy="13.5" r="13.5" stroke="none"/>
        <circle cx="13.5" cy="13.5" r="13" fill="none"/>
      </g>
      <g id="svgexport-18_39_" data-name="svgexport-18 (39)" transform="translate(340.524 548.879)">
        <path id="Path_2739" data-name="Path 2739" d="M13.943,17.6l.321-.373.313.269a.231.231,0,0,0,.326-.025l.5-.578a.231.231,0,0,0-.025-.326l-1.709-1.47a.232.232,0,0,0-.326.025l-.5.578a.231.231,0,0,0,.025.326l.313.269-.346.4a6.144,6.144,0,0,0-2.378-.9v-.7h.8a.676.676,0,0,0,.675-.675v-.539a.676.676,0,0,0-.675-.675H7.776a.676.676,0,0,0-.675.675v.539a.676.676,0,0,0,.675.675h.8v.7a6.145,6.145,0,0,0-2.419.924l-.369-.429.313-.269a.232.232,0,0,0,.025-.326l-.5-.578a.231.231,0,0,0-.326-.025L3.59,16.562a.232.232,0,0,0-.025.326l.5.578a.231.231,0,0,0,.326.025l.313-.269.351.409a6.224,6.224,0,0,0-.806,1.043H2.761a.231.231,0,1,0,0,.463H3.989a6.149,6.149,0,0,0-.318.752H1.332a.231.231,0,0,0,0,.463h2.2a6.148,6.148,0,0,0-.173.991H.231a.231.231,0,0,0,0,.463h3.1c0,.035,0,.069,0,.1a6.207,6.207,0,0,0,.064.887H1.116a.231.231,0,0,0,0,.463H3.48a6.123,6.123,0,0,0,.219.752H2.545a.231.231,0,0,0,0,.463H3.889a6.184,6.184,0,0,0,9.231,2.46.231.231,0,1,0-.27-.376,5.723,5.723,0,1,1,.608-8.79l.007.006a5.716,5.716,0,0,1,.092,8.183.231.231,0,0,0,.327.328,6.178,6.178,0,0,0,.059-8.689Zm-.4-2L14.9,16.762l-.2.227-1.358-1.168Zm-.009,1,.382.328-.306.355q-.188-.167-.39-.318Zm-5.04-1.959v-.962h.374v.962Zm.837-.962H9.7v.962H9.328Zm.837.962v-.962h.374v.962Zm1.3-.75v.539a.212.212,0,0,1-.212.212H11v-.962h.252A.212.212,0,0,1,11.466,13.883Zm-3.9.539v-.539a.212.212,0,0,1,.212-.212h.252v.962H7.776a.212.212,0,0,1-.212-.212Zm-3.3,2.568-.2-.227,1.358-1.168.2.227-.313.269h0l-.733.63h0Zm.8-.075.375-.322.34.4q-.2.153-.388.321l-.334-.388Zm3.977-1.172V15.1h.958v.646A6.239,6.239,0,0,0,9.036,15.743Z" transform="translate(0 -13.208)" fill="#fff"/>
        <path id="Path_2740" data-name="Path 2740" d="M153.519,138.021a.232.232,0,0,0-.312-.1,4.845,4.845,0,1,0,1.016-.393.232.232,0,1,0,.118.448,4.363,4.363,0,0,1,.886-.138v.608a.231.231,0,1,0,.463,0v-.608q.169.009.338.031a4.372,4.372,0,0,1,2.385,1.1l-.419.419a.231.231,0,0,0,.327.327l.418-.418q.11.123.21.253a4.372,4.372,0,0,1,.909,2.46h-.574a.231.231,0,0,0,0,.463h.573q-.009.166-.031.332a4.379,4.379,0,0,1-1.088,2.368l-.4-.4a.231.231,0,0,0-.327.327l.4.4a4.406,4.406,0,0,1-2.692,1.131v-.566a.231.231,0,1,0-.463,0v.569q-.184-.008-.366-.032a4.379,4.379,0,0,1-2.347-1.069l.41-.41a.231.231,0,0,0-.327-.327l-.412.412a4.406,4.406,0,0,1-1.15-2.707h.6a.231.231,0,1,0,0-.463h-.6c.006-.123.016-.247.032-.372a4.407,4.407,0,0,1,1.082-2.363l.431.431a.231.231,0,0,0,.327-.327l-.433-.433a4.406,4.406,0,0,1,.922-.645A.231.231,0,0,0,153.519,138.021Z" transform="translate(-145.942 -133.538)" fill="#fff"/>
        <path id="Path_2741" data-name="Path 2741" d="M290.484,226.278a.231.231,0,0,0-.231.232v1.375a.566.566,0,1,0,.471,1.03l1.544,1.544a.232.232,0,1,0,.327-.327l-1.568-1.568a.565.565,0,0,0-.312-.679v-1.375a.232.232,0,0,0-.231-.232Zm-.1,2.123a.1.1,0,1,1,.1.1A.1.1,0,0,1,290.38,228.4Z" transform="translate(-280.969 -219.701)" fill="#fff"/>
      </g>
    </g>
  </g>
</svg>
