<svg xmlns="http://www.w3.org/2000/svg" width="27.223" height="27.221" viewBox="0 0 27.223 27.221">
  <path id="Path_180" data-name="Path 180" d="M23.015,4.122a13.355,13.355,0,1,0-18.9,18.862c.008.008.011.019.018.026.077.074.161.137.239.209.215.191.429.388.655.572.121.1.247.191.371.279.214.159.427.319.651.466.152.1.308.191.464.286.206.124.411.249.624.363.18.1.364.177.548.264.2.1.4.191.6.277s.411.153.619.227.387.143.587.2c.225.068.456.12.685.176.191.047.376.1.572.138.263.052.53.086.8.122.165.023.326.055.493.072.437.043.878.067,1.322.067s.885-.024,1.322-.067c.167-.016.328-.049.493-.072.267-.036.534-.07.8-.122.191-.038.382-.1.572-.138.229-.056.46-.109.685-.176.2-.061.392-.135.587-.2s.416-.143.619-.227.4-.182.6-.277c.183-.087.367-.169.548-.264.213-.114.418-.239.624-.363.156-.1.312-.182.464-.286.223-.147.437-.306.651-.466.124-.1.25-.181.371-.279.226-.181.441-.374.655-.572.078-.072.162-.135.239-.209.008-.007.011-.018.018-.026A13.341,13.341,0,0,0,23.015,4.122ZM20.87,21.986c-.174.153-.353.3-.534.438-.107.082-.214.163-.323.241-.173.125-.348.243-.527.357-.13.083-.262.163-.4.241q-.252.143-.511.286c-.153.078-.308.152-.465.224s-.329.15-.5.218-.348.132-.525.191c-.161.055-.322.113-.486.161-.191.057-.39.1-.588.152-.155.036-.307.077-.464.108-.226.044-.457.074-.689.106-.132.017-.262.041-.4.054-.366.035-.738.056-1.112.056s-.746-.021-1.112-.056c-.133-.013-.263-.037-.4-.054-.232-.031-.463-.062-.689-.106-.156-.031-.309-.072-.464-.108-.2-.048-.394-.1-.588-.152-.163-.049-.324-.106-.486-.161-.176-.061-.353-.123-.525-.191s-.334-.142-.5-.218-.312-.146-.465-.224c-.173-.09-.343-.184-.511-.286-.134-.078-.266-.158-.4-.241-.178-.114-.354-.232-.527-.357-.11-.078-.217-.159-.323-.241-.181-.14-.361-.286-.534-.438-.042-.031-.08-.072-.121-.108a7.654,7.654,0,0,1,5.2-7.151,5.657,5.657,0,0,0,4.86,0,7.655,7.655,0,0,1,5.2,7.151C20.95,21.914,20.911,21.95,20.87,21.986ZM10.03,7.66a3.816,3.816,0,1,1,5.2,5.2.02.02,0,0,0-.016.006,4.042,4.042,0,0,1-.8.338c-.05.014-.1.033-.148.046-.1.025-.2.042-.294.059a3.865,3.865,0,0,1-.56.056H13.3a3.864,3.864,0,0,1-.56-.056c-.1-.017-.2-.034-.294-.059-.051-.012-.1-.031-.148-.046a4.039,4.039,0,0,1-.8-.338l-.017-.006A3.816,3.816,0,0,1,10.03,7.66ZM22.682,19.986h0a9.588,9.588,0,0,0-5.108-6.576,5.724,5.724,0,1,0-8.434,0,9.588,9.588,0,0,0-5.108,6.576,11.449,11.449,0,1,1,18.65,0Z" transform="translate(0.25 0.239)" fill="#75747a" stroke="#fff" stroke-width="0.5"/>
</svg>
