<svg xmlns="http://www.w3.org/2000/svg" width="100" height="82" viewBox="0 0 100 82">
  <g id="Group_1674" data-name="Group 1674" transform="translate(-146.659 -682.242)">
    <g id="Group_107" data-name="Group 107" transform="translate(147 682)">
      <rect id="Button" width="100" height="82" rx="17" transform="translate(-0.341 0.242)" fill="#fff"/>
      <g id="svgexport-17_11_" data-name="svgexport-17 (11)" transform="translate(25.838 17.421)">
        <path id="Path_2780" data-name="Path 2780" d="M113.18,83.841v24.5a3.845,3.845,0,0,1-3.841,3.841h-24.5A3.845,3.845,0,0,1,81,108.339v-24.5A3.845,3.845,0,0,1,84.841,80h24.5A3.845,3.845,0,0,1,113.18,83.841Z" transform="translate(-73.553 -72.645)" fill="#ecf9fd"/>
        <path id="Path_2781" data-name="Path 2781" d="M272.09,83.841v24.5a3.845,3.845,0,0,1-3.841,3.841H256V80h12.249A3.845,3.845,0,0,1,272.09,83.841Z" transform="translate(-232.462 -72.645)" fill="#d9f3fc"/>
        <path id="Path_2782" data-name="Path 2782" d="M46.616,243.758H2.483a1.379,1.379,0,0,1,0-2.758H46.616A1.379,1.379,0,0,1,46.616,243.758Z" transform="translate(-1.012 -218.842)" fill="#58b354"/>
        <path id="Path_2783" data-name="Path 2783" d="M278.067,243.758H256V241h22.067A1.379,1.379,0,0,1,278.067,243.758Z" transform="translate(-232.462 -218.842)" fill="#00a963"/>
        <path id="Path_2784" data-name="Path 2784" d="M380.4,11.677V5.088a2.333,2.333,0,0,0-2.33-2.33h-6.589a1.379,1.379,0,0,1,0-2.758h6.589a5.094,5.094,0,0,1,5.088,5.088v6.589A1.379,1.379,0,0,1,380.4,11.677Zm-2.33,35.4h-6.589a1.379,1.379,0,0,1,0-2.758h6.589a2.333,2.333,0,0,0,2.33-2.33V35.4a1.379,1.379,0,0,1,2.758,0v6.589A5.094,5.094,0,0,1,378.073,47.075Z" transform="translate(-336.086)" fill="#001737"/>
        <path id="Path_2785" data-name="Path 2785" d="M0,11.677V5.088A5.094,5.094,0,0,1,5.088,0h6.589a1.379,1.379,0,0,1,0,2.758H5.088a2.333,2.333,0,0,0-2.33,2.33v6.589A1.379,1.379,0,0,1,0,11.677Zm11.677,35.4H5.088A5.094,5.094,0,0,1,0,41.987V35.4a1.379,1.379,0,0,1,2.758,0v6.589a2.333,2.333,0,0,0,2.33,2.33h6.589A1.379,1.379,0,0,1,11.677,47.075Z" fill="#00357b"/>
        <path id="Path_2786" data-name="Path 2786" d="M332.5,112.18h-4.374a1.379,1.379,0,0,1,0-2.758H332.5a1.084,1.084,0,0,0,1.083-1.083v-4.374a1.379,1.379,0,0,1,2.758,0v4.374A3.846,3.846,0,0,1,332.5,112.18Zm1.083-23.965V83.842a1.085,1.085,0,0,0-1.083-1.083h-4.374a1.379,1.379,0,0,1,0-2.758H332.5a3.846,3.846,0,0,1,3.842,3.842v4.374A1.379,1.379,0,0,1,333.585,88.216Z" transform="translate(-296.715 -72.645)" fill="#001737"/>
        <g id="Group_1673" data-name="Group 1673" transform="translate(7.447 7.355)">
          <path id="Path_2787" data-name="Path 2787" d="M81,88.216V83.842A3.846,3.846,0,0,1,84.842,80h4.374a1.379,1.379,0,0,1,0,2.758H84.842a1.084,1.084,0,0,0-1.083,1.083v4.374A1.379,1.379,0,0,1,81,88.216Zm8.216,23.965H84.842A3.846,3.846,0,0,1,81,108.339v-4.374a1.379,1.379,0,0,1,2.758,0v4.374a1.085,1.085,0,0,0,1.083,1.083h4.374A1.379,1.379,0,0,1,89.216,112.18Z" transform="translate(-81 -80)" fill="#00357b"/>
        </g>
      </g>
    </g>
  </g>
</svg>
