<svg xmlns="http://www.w3.org/2000/svg" width="29.786" height="26.342" viewBox="0 0 29.786 26.342">
  <g id="Group_42442" data-name="Group 42442" transform="translate(-263 -859.353)">
    <g id="Group_62" data-name="Group 62" transform="translate(243 859.353)">
      <ellipse id="Ellipse_193" data-name="Ellipse 193" cx="10.5" cy="11" rx="10.5" ry="11" transform="translate(28.786 4.342)" fill="#36b3a1"/>
      <g id="calendar_1_" data-name="calendar (1)" transform="translate(20)">
        <path id="Path_186" data-name="Path 186" d="M2.934,1.778H4.978V.711A.711.711,0,1,1,6.4.711V1.778h9.957V.711a.711.711,0,1,1,1.422,0V1.778h2.045a2.937,2.937,0,0,1,2.934,2.934V19.824a2.937,2.937,0,0,1-2.934,2.934H2.934A2.937,2.937,0,0,1,0,19.824V4.712A2.937,2.937,0,0,1,2.934,1.778ZM19.824,3.2H17.78v.711a.711.711,0,1,1-1.422,0V3.2H6.4v.711a.711.711,0,1,1-1.422,0V3.2H2.934A1.513,1.513,0,0,0,1.422,4.712V6.4H21.335V4.712A1.513,1.513,0,0,0,19.824,3.2ZM2.934,21.336H19.824a1.513,1.513,0,0,0,1.511-1.511v-12H1.422v12A1.513,1.513,0,0,0,2.934,21.336Z"/>
      </g>
    </g>
  </g>
</svg>
