<svg xmlns="http://www.w3.org/2000/svg" width="27.786" height="26.342" viewBox="0 0 27.786 26.342">
  <g id="Group_42442" data-name="Group 42442" transform="translate(-58 -859.353)">
    <g id="Group_64" data-name="Group 64" transform="translate(56 859.353)">
      <ellipse id="Ellipse_191" data-name="Ellipse 191" cx="10.5" cy="11" rx="10.5" ry="11" transform="translate(8.786 4.342)" fill="#36b3a1"/>
      <g id="browser" transform="translate(2)">
        <path id="Path_183" data-name="Path 183" d="M58.3,206.378H42.181A2.184,2.184,0,0,1,40,204.2V192.722a.759.759,0,1,1,1.517,0V204.2a.665.665,0,0,0,.664.664H58.3a.665.665,0,0,0,.664-.664V192.722a.759.759,0,1,1,1.517,0V204.2A2.184,2.184,0,0,1,58.3,206.378Z" transform="translate(-38.103 -183.62)"/>
        <path id="Path_184" data-name="Path 184" d="M23.518,27.773a.756.756,0,0,1-.536-.222l-9.435-9.435a1.994,1.994,0,0,0-2.816,0L1.3,27.551A.759.759,0,0,1,.222,26.478l9.435-9.435a3.513,3.513,0,0,1,4.962,0l9.435,9.435a.759.759,0,0,1-.536,1.3Z" transform="translate(0 -16.017)"/>
        <path id="Path_185" data-name="Path 185" d="M182.828,297.845h-6.069a.759.759,0,0,1-.759-.759v-6.733a2.373,2.373,0,0,1,2.371-2.371h2.845a2.373,2.373,0,0,1,2.371,2.371v6.733A.759.759,0,0,1,182.828,297.845Zm-5.311-1.517h4.552v-5.974a.854.854,0,0,0-.854-.853h-2.845a.854.854,0,0,0-.853.853Z" transform="translate(-167.655 -275.088)"/>
      </g>
    </g>
  </g>
</svg>
