<svg xmlns="http://www.w3.org/2000/svg" width="33.786" height="27.342" viewBox="0 0 33.786 27.342">
  <g id="Group_42442" data-name="Group 42442" transform="translate(-361 -858.353)">
    <g id="Group_61" data-name="Group 61" transform="translate(351 858.353)">
      <ellipse id="Ellipse_194" data-name="Ellipse 194" cx="10.5" cy="11" rx="10.5" ry="11" transform="translate(22.786 5.342)" fill="#36b3a1"/>
      <g id="settings" transform="translate(10)">
        <path id="Path_181" data-name="Path 181" d="M12.657,27.01h1.7a2.489,2.489,0,0,0,2.486-2.486V23.95a10.9,10.9,0,0,0,1.693-.7l.406.406a2.486,2.486,0,0,0,3.517,0l1.2-1.2a2.486,2.486,0,0,0,0-3.517l-.406-.406a10.905,10.905,0,0,0,.7-1.693h.573a2.489,2.489,0,0,0,2.486-2.486v-1.7a2.489,2.489,0,0,0-2.486-2.486H23.95a10.907,10.907,0,0,0-.7-1.693l.406-.406a2.486,2.486,0,0,0,0-3.517l-1.2-1.2a2.486,2.486,0,0,0-3.517,0l-.406.406a10.914,10.914,0,0,0-1.693-.7V2.486A2.489,2.489,0,0,0,14.353,0h-1.7a2.489,2.489,0,0,0-2.486,2.486V3.06a10.9,10.9,0,0,0-1.693.7l-.406-.406a2.486,2.486,0,0,0-3.517,0l-1.2,1.2a2.486,2.486,0,0,0,0,3.517l.406.406a10.9,10.9,0,0,0-.7,1.693H2.487A2.489,2.489,0,0,0,0,12.657v1.7a2.489,2.489,0,0,0,2.486,2.486H3.06a10.907,10.907,0,0,0,.7,1.693l-.406.406a2.486,2.486,0,0,0,0,3.517l1.2,1.2a2.486,2.486,0,0,0,3.517,0l.406-.406a10.914,10.914,0,0,0,1.693.7v.573A2.489,2.489,0,0,0,12.657,27.01Zm5.61-5.425a9.328,9.328,0,0,1-2.418,1,.791.791,0,0,0-.594.766v1.168a.9.9,0,0,1-.9.9h-1.7a.9.9,0,0,1-.9-.9V23.355a.791.791,0,0,0-.594-.766,9.328,9.328,0,0,1-2.418-1,.791.791,0,0,0-.962.122l-.828.828a.9.9,0,0,1-1.278,0l-1.2-1.2a.9.9,0,0,1,0-1.278L5.3,19.23a.791.791,0,0,0,.122-.962,9.326,9.326,0,0,1-1-2.418.791.791,0,0,0-.766-.594H2.486a.9.9,0,0,1-.9-.9v-1.7a.9.9,0,0,1,.9-.9H3.655a.791.791,0,0,0,.766-.594,9.328,9.328,0,0,1,1-2.418A.791.791,0,0,0,5.3,7.78l-.828-.828a.9.9,0,0,1,0-1.278l1.2-1.2a.9.9,0,0,1,1.278,0L7.78,5.3a.791.791,0,0,0,.962.122,9.327,9.327,0,0,1,2.418-1,.791.791,0,0,0,.594-.766V2.486a.9.9,0,0,1,.9-.9h1.7a.9.9,0,0,1,.9.9V3.655a.791.791,0,0,0,.594.766,9.327,9.327,0,0,1,2.418,1A.791.791,0,0,0,19.23,5.3l.828-.828a.9.9,0,0,1,1.278,0l1.2,1.2a.9.9,0,0,1,0,1.278l-.828.828a.791.791,0,0,0-.122.962,9.326,9.326,0,0,1,1,2.418.791.791,0,0,0,.766.594h1.168a.9.9,0,0,1,.9.9v1.7a.9.9,0,0,1-.9.9H23.355a.791.791,0,0,0-.766.594,9.328,9.328,0,0,1-1,2.418.791.791,0,0,0,.122.962l.828.828a.9.9,0,0,1,0,1.278l-1.2,1.2a.9.9,0,0,1-1.278,0l-.828-.828A.8.8,0,0,0,18.268,21.585Z" transform="translate(0 0)"/>
        <path id="Path_182" data-name="Path 182" d="M150.477,156.354a5.877,5.877,0,1,0-5.877-5.877A5.883,5.883,0,0,0,150.477,156.354Zm0-10.171a4.294,4.294,0,1,1-4.294,4.294A4.3,4.3,0,0,1,150.477,146.183Z" transform="translate(-136.972 -136.972)"/>
      </g>
    </g>
  </g>
</svg>
