<svg xmlns="http://www.w3.org/2000/svg" width="149" height="149" viewBox="0 0 149 149">
  <g id="svgexport-18_49_" data-name="svgexport-18 (49)" transform="translate(4.948 4.64)">
    <circle id="Ellipse_195" data-name="Ellipse 195" cx="70.012" cy="70.012" r="70.012" transform="translate(0 0)" fill="#348074"/>
    <g id="svgexport-17_9_" data-name="svgexport-17 (9)" transform="translate(-4.612 -4.304)">
      <g id="Layer_2" data-name="Layer 2">
        <circle id="Ellipse_196" data-name="Ellipse 196" cx="74.5" cy="74.5" r="74.5" transform="translate(-0.336 -0.336)" fill="rgba(0,0,0,0)"/>
        <path id="Path_2775" data-name="Path 2775" d="M178.365,198.043a2.789,2.789,0,0,1-.925-.168A32.609,32.609,0,0,1,160.425,187.5a28.221,28.221,0,0,1-6.78-19.016,11.551,11.551,0,0,1,3.837-8.787,13.378,13.378,0,0,1,18.071,0,11.551,11.551,0,0,1,3.848,8.787,6.232,6.232,0,0,0,2.271,4.9,7.972,7.972,0,0,0,5.481,2.082,7.517,7.517,0,0,0,5.258-2.071,6.354,6.354,0,0,0,2.2-4.93,23.824,23.824,0,0,0-8.236-18.543,29.9,29.9,0,0,0-39.705,0,23.891,23.891,0,0,0-8.236,18.543,42.9,42.9,0,0,0,.51,5.762,40.449,40.449,0,0,0,2.163,8.039,2.256,2.256,0,0,1-.255,2.337,3.7,3.7,0,0,1-.853.771l-.084.058-.093.046a2.813,2.813,0,0,1-1.27.29,2.86,2.86,0,0,1-.641-.072,2.48,2.48,0,0,1-1.8-1.572l-.017-.038v-.041a56.116,56.116,0,0,1-2.03-7.662,42.686,42.686,0,0,1-.748-7.932,29.6,29.6,0,0,1,9.924-22.36,33.067,33.067,0,0,1,23.285-9.222,33.628,33.628,0,0,1,23.52,9.072,29.621,29.621,0,0,1,9.884,22.511,11.522,11.522,0,0,1-3.77,8.683,12.711,12.711,0,0,1-8.99,3.518,13.166,13.166,0,0,1-9.17-3.5,11.384,11.384,0,0,1-3.895-8.7,6.441,6.441,0,0,0-2.2-5.017,7.627,7.627,0,0,0-5.365-2.065,7.793,7.793,0,0,0-5.42,2.074,6.38,6.38,0,0,0-2.236,5.008,22.36,22.36,0,0,0,5.617,15.536,30.9,30.9,0,0,0,14.309,8.88l.052.017a2.72,2.72,0,0,1,1.673,1.305,2.859,2.859,0,0,1-.9,3.451A2.236,2.236,0,0,1,178.365,198.043Zm-20.823-.783a2.41,2.41,0,0,1-1.85-.916,49.534,49.534,0,0,1-8.929-12.47,34.62,34.62,0,0,1-3.289-15.405,20.564,20.564,0,0,1,6.809-15.6,23.009,23.009,0,0,1,16.241-6.3,23.412,23.412,0,0,1,16.322,6.287,20.513,20.513,0,0,1,6.914,15.605,2.477,2.477,0,0,1-2.61,2.61,2.8,2.8,0,0,1-1.821-.621,2.529,2.529,0,0,1-.87-1.987,15.22,15.22,0,0,0-5.264-11.827,18.028,18.028,0,0,0-12.659-4.849,17.71,17.71,0,0,0-12.569,4.846,15.284,15.284,0,0,0-5.18,11.838,29.827,29.827,0,0,0,2.659,13.181,44.6,44.6,0,0,0,8.094,11.084,2.439,2.439,0,0,1,.789,2.108,2.746,2.746,0,0,1-.8,1.554,3.156,3.156,0,0,1-1.27.737,2.245,2.245,0,0,1-.716.116Zm28.737-7.372a22.764,22.764,0,0,1-15.739-6.038,19.973,19.973,0,0,1-6.728-15.371,2.8,2.8,0,0,1,.621-1.824,2.68,2.68,0,0,1,3.973,0,2.781,2.781,0,0,1,.624,1.824,14.618,14.618,0,0,0,5.148,11.568,17.593,17.593,0,0,0,12.1,4.626c.458,0,1.021-.032,1.673-.09s1.389-.151,2.169-.27a2.9,2.9,0,0,1,.539-.052,2.4,2.4,0,0,1,1.563.554,2.781,2.781,0,0,1,.893,1.273l.02.058.014.064a2.581,2.581,0,0,1-.171,1.807,2.4,2.4,0,0,1-1.708,1.25,14.934,14.934,0,0,1-3.353.58c-1.186.038-1.505.041-1.641.041ZM132.663,149.82a2.735,2.735,0,0,1-1.227-.29,2.3,2.3,0,0,1-1.3-2.1,3.445,3.445,0,0,1,.368-1.554l.058-.119.078-.107A42.173,42.173,0,0,1,146.3,132.382a45.163,45.163,0,0,1,20.2-4.681,46.259,46.259,0,0,1,20.24,4.576,42.025,42.025,0,0,1,15.82,13.175l.043.061.038.064a2.529,2.529,0,0,1-.339,3.347,2.61,2.61,0,0,1-3.991-.331l-.026-.032-.023-.035a36.13,36.13,0,0,0-13.813-11.563,41.054,41.054,0,0,0-17.946-4.06,39.757,39.757,0,0,0-17.783,4.1,37.928,37.928,0,0,0-13.8,11.542l-.017.023-.02.026a3.106,3.106,0,0,1-1.554,1.131A2.558,2.558,0,0,1,132.663,149.82ZM143.6,128.986a2.137,2.137,0,0,1-1.1-.29,3.028,3.028,0,0,1-.87-.824,2.413,2.413,0,0,1-.545-1.6,2.3,2.3,0,0,1,1.024-1.949l.061-.041.064-.035a51.654,51.654,0,0,1,11.844-4.658A50.241,50.241,0,0,1,166.516,118a51,51,0,0,1,12.642,1.586A57.592,57.592,0,0,1,190.905,124a2.349,2.349,0,0,1,1.47,1.868,2.61,2.61,0,0,1-.409,1.792,3.161,3.161,0,0,1-1.082.995,2.352,2.352,0,0,1-1.189.313,2.83,2.83,0,0,1-1.056-.212l-.058-.023-.058-.029a56.356,56.356,0,0,0-10.716-3.962,45.221,45.221,0,0,0-11.293-1.433,47.042,47.042,0,0,0-11.2,1.355,44.62,44.62,0,0,0-10.449,4.027l-.081.044-.087.035a2.929,2.929,0,0,1-1.1.212Z" transform="translate(-92.398 -83.779)" fill="#fff"/>
      </g>
    </g>
  </g>
</svg>
