<svg xmlns="http://www.w3.org/2000/svg" width="30.044" height="30.044"><g data-name="svgexport-8 (18)"><g data-name="Group 125"><g data-name="Group 124"><g data-name="Path 247"><path d="m11.484 15.73-1.76-8.802a.88.88 0 0 0-.863-.708H7.1a.88.88 0 0 0-.864.708l-1.76 8.802a.88.88 0 1 0 1.726.345l.563-2.813h2.43l.562 2.813a.88.88 0 1 0 1.726-.345ZM7.118 11.5l.704-3.52h.317l.704 3.52H7.118Z" fill-rule="evenodd"/><path d="m11.484 15.73-1.76-8.802a.88.88 0 0 0-.863-.708H7.1a.88.88 0 0 0-.864.708l-1.76 8.802a.88.88 0 1 0 1.726.345l.563-2.813h2.43l.562 2.813a.88.88 0 1 0 1.726-.345ZM7.118 11.5l.704-3.52h.317l.704 3.52H7.118Z" stroke-linejoin="round" stroke-linecap="round" stroke-width=".2" stroke="#fff" fill="transparent"/></g></g></g><g data-name="Group 127"><g data-name="Group 126"><g data-name="Path 248"><path d="M25.585 13.262h-2.641v-.88a.88.88 0 0 0-1.76 0v.88h-2.641a.88.88 0 0 0 0 1.76h.213a11.011 11.011 0 0 0 2.088 3.86c-.677.62-1.361 1.127-1.97 1.614a.88.88 0 1 0 1.1 1.375c.612-.49 1.347-1.035 2.09-1.717.743.682 1.48 1.228 2.09 1.717a.88.88 0 1 0 1.1-1.375c-.608-.486-1.293-.994-1.97-1.613.831-.997 1.586-2.24 2.088-3.86h.213a.88.88 0 1 0 0-1.761Zm-3.521 4.327a9.273 9.273 0 0 1-1.449-2.573h2.897a9.268 9.268 0 0 1-1.448 2.573Z" fill-rule="evenodd"/><path d="M25.585 13.262h-2.641v-.88a.88.88 0 0 0-1.76 0v.88h-2.641a.88.88 0 0 0 0 1.76h.213a11.011 11.011 0 0 0 2.088 3.86c-.677.62-1.361 1.127-1.97 1.614a.88.88 0 1 0 1.1 1.375c.612-.49 1.347-1.035 2.09-1.717.743.682 1.48 1.228 2.09 1.717a.88.88 0 1 0 1.1-1.375c-.608-.486-1.293-.994-1.97-1.613.831-.997 1.586-2.24 2.088-3.86h.213a.88.88 0 1 0 0-1.761Zm-3.521 4.327a9.273 9.273 0 0 1-1.449-2.573h2.897a9.268 9.268 0 0 1-1.448 2.573Z" stroke-linejoin="round" stroke-linecap="round" stroke-width=".2" stroke="#fff" fill="transparent"/></g></g></g><g data-name="Group 129"><g data-name="Group 128"><g data-name="Path 249"><path d="M27.404 5.34H14.705l-.377-3.027A2.645 2.645 0 0 0 11.708 0H2.64A2.644 2.644 0 0 0 0 2.64v19.424a2.644 2.644 0 0 0 2.64 2.64h7.423l.372 3.027a2.647 2.647 0 0 0 2.62 2.313h14.349a2.644 2.644 0 0 0 2.64-2.64V7.98a2.644 2.644 0 0 0-2.64-2.641ZM2.64 22.944a.881.881 0 0 1-.88-.88V2.64c0-.486.394-.88.88-.88h9.067c.443 0 .818.33.873.77l2.545 20.413H2.64Zm9.49 4.152-.295-2.392h2.362l-2.067 2.392Zm16.153.308c0 .485-.395.88-.88.88H13.43l3.351-3.876a.879.879 0 0 0 .213-.706L14.924 7.1h12.48c.485 0 .88.395.88.88v19.424Z" fill-rule="evenodd"/><path d="M27.404 5.34H14.705l-.377-3.027A2.645 2.645 0 0 0 11.708 0H2.64A2.644 2.644 0 0 0 0 2.64v19.424a2.644 2.644 0 0 0 2.64 2.64h7.423l.372 3.027a2.647 2.647 0 0 0 2.62 2.313h14.349a2.644 2.644 0 0 0 2.64-2.64V7.98a2.644 2.644 0 0 0-2.64-2.641ZM2.64 22.944a.881.881 0 0 1-.88-.88V2.64c0-.486.394-.88.88-.88h9.067c.443 0 .818.33.873.77l2.545 20.413H2.64Zm9.49 4.152-.295-2.392h2.362l-2.067 2.392Zm16.153.308c0 .485-.395.88-.88.88H13.43l3.351-3.876a.879.879 0 0 0 .213-.706L14.924 7.1h12.48c.485 0 .88.395.88.88v19.424Z" stroke-linejoin="round" stroke-linecap="round" stroke-width=".2" stroke="#fff" fill="transparent"/></g></g></g></g></svg>